<?xml version="1.0" encoding="UTF-8" standalone="no"?>
<svg
   xmlns:dc="http://purl.org/dc/elements/1.1/"
   xmlns:cc="http://creativecommons.org/ns#"
   xmlns:rdf="http://www.w3.org/1999/02/22-rdf-syntax-ns#"
   xmlns:svg="http://www.w3.org/2000/svg"
   xmlns="http://www.w3.org/2000/svg"
   xmlns:sodipodi="http://sodipodi.sourceforge.net/DTD/sodipodi-0.dtd"
   xmlns:inkscape="http://www.inkscape.org/namespaces/inkscape"
   version="1.1"
   width="12.86in"
   height="8.74in"
   viewBox=" 0 0 1157.3999999999999 786.6"
   id="svg2"
   inkscape:version="0.91 r13725"
   sodipodi:docname="Case-External-With-Design.svg">
  <metadata
     id="metadata32">
    <rdf:RDF>
      <cc:Work
         rdf:about="">
        <dc:format>image/svg+xml</dc:format>
        <dc:type
           rdf:resource="http://purl.org/dc/dcmitype/StillImage" />
        <dc:title></dc:title>
      </cc:Work>
    </rdf:RDF>
  </metadata>
  <defs
     id="defs30" />
  <sodipodi:namedview
     pagecolor="#ffffff"
     bordercolor="#666666"
     borderopacity="1"
     objecttolerance="10"
     gridtolerance="10"
     guidetolerance="10"
     inkscape:pageopacity="0"
     inkscape:pageshadow="2"
     inkscape:window-width="1366"
     inkscape:window-height="705"
     id="namedview28"
     showgrid="false"
     inkscape:zoom="0.50285123"
     inkscape:cx="506.00183"
     inkscape:cy="324.52645"
     inkscape:window-x="-8"
     inkscape:window-y="-8"
     inkscape:window-maximized="1"
     inkscape:current-layer="layer1" />
  <!-- Front-->
  <g
     transform="translate(22.5,22.5)"
     id="g4">
    <polygon
       style="fill:none;stroke:#000000;stroke-width:0.89999998"
       points="56.745,24.93 62.955,24.93 62.955,34.11 73.395,34.11 73.395,24.93 79.605,24.93 79.605,15.75 73.395,15.75 73.395,10.62 90.9,10.62 90.9,0 117.9,0 117.9,10.62 144.9,10.62 144.9,0 171.9,0 171.9,10.62 198.9,10.62 198.9,0 225.9,0 225.9,10.62 252.9,10.62 252.9,0 279.9,0 279.9,10.62 297.405,10.62 297.405,15.75 291.195,15.75 291.195,24.93 297.405,24.93 297.405,34.11 307.845,34.11 307.845,24.93 314.055,24.93 314.055,15.75 307.845,15.75 307.845,10.62 325.35,10.62 325.35,0 360.18,0 360.18,45.45 370.8,45.45 370.8,61.605 357.66,61.605 357.66,74.745 370.8,74.745 370.8,90.9 360.18,90.9 360.18,117.9 370.8,117.9 370.8,144.9 360.18,144.9 360.18,171.9 370.8,171.9 370.8,198.9 360.18,198.9 360.18,225.9 370.8,225.9 370.8,252.9 360.18,252.9 360.18,279.9 370.8,279.9 370.8,296.055 357.66,296.055 357.66,309.195 370.8,309.195 370.8,325.35 360.18,325.35 360.18,370.8 325.35,370.8 325.35,360.18 307.845,360.18 307.845,355.05 314.055,355.05 314.055,345.87 307.845,345.87 307.845,336.69 297.405,336.69 297.405,345.87 291.195,345.87 291.195,355.05 297.405,355.05 297.405,360.18 279.9,360.18 279.9,370.8 252.9,370.8 252.9,360.18 225.9,360.18 225.9,370.8 198.9,370.8 198.9,360.18 171.9,360.18 171.9,370.8 144.9,370.8 144.9,360.18 117.9,360.18 117.9,370.8 90.9,370.8 90.9,360.18 73.395,360.18 73.395,355.05 79.605,355.05 79.605,345.87 73.395,345.87 73.395,336.69 62.955,336.69 62.955,345.87 56.745,345.87 56.745,355.05 62.955,355.05 62.955,360.18 45.45,360.18 45.45,370.8 10.62,370.8 10.62,325.35 0,325.35 0,309.195 13.14,309.195 13.14,296.055 0,296.055 0,279.9 10.62,279.9 10.62,252.9 0,252.9 0,225.9 10.62,225.9 10.62,198.9 0,198.9 0,171.9 10.62,171.9 10.62,144.9 0,144.9 0,117.9 10.62,117.9 10.62,90.9 0,90.9 0,74.745 13.14,74.745 13.14,61.605 0,61.605 0,45.45 10.62,45.45 10.62,0 45.45,0 45.45,10.62 62.955,10.62 62.955,15.75 56.745,15.75 "
       id="polygon6" />
  </g>
  <!-- Back-->
  <g
     transform="translate(393.3, 22.5) "
     id="g8">
    <polygon
       style="stroke:#000000; fill:none; stroke-width:0.9"
       points="10.62, 0 45.45000000000001, 0 45.45000000000001, 10.62 62.95500000000001, 10.62 62.95500000000001, 15.749999999999998 56.74500000000001, 15.749999999999998 56.74500000000001, 24.93 62.95500000000001, 24.93 62.95500000000001, 34.11 73.39500000000001, 34.11 73.39500000000001, 24.93 79.60500000000002, 24.93 79.60500000000002, 15.749999999999998 73.39500000000001, 15.749999999999998 73.39500000000001, 10.62 90.90000000000002, 10.62 90.90000000000002, 0 117.90000000000002, 0 117.90000000000002, 10.62 144.90000000000003, 10.62 144.90000000000003, 0 171.90000000000003, 0 171.90000000000003, 10.62 198.90000000000003, 10.62 198.90000000000003, 0 225.90000000000003, 0 225.90000000000003, 10.62 252.90000000000003, 10.62 252.90000000000003, 0 279.90000000000003, 0 279.90000000000003, 10.62 297.405, 10.62 297.405, 15.749999999999998 291.195, 15.749999999999998 291.195, 24.93 297.405, 24.93 297.405, 34.11 307.845, 34.11 307.845, 24.93 314.055, 24.93 314.055, 15.749999999999998 307.845, 15.749999999999998 307.845, 10.62 325.35, 10.62 325.35, 0 360.18, 0 360.18, 45.45000000000001 370.8, 45.45000000000001 370.8, 61.60500000000001 357.66, 61.60500000000001 357.66, 74.745 370.8, 74.745 370.8, 90.90000000000002 360.18, 90.90000000000002 360.18, 117.90000000000002 370.8, 117.90000000000002 370.8, 144.90000000000003 360.18, 144.90000000000003 360.18, 171.90000000000003 370.8, 171.90000000000003 370.8, 198.90000000000003 360.18, 198.90000000000003 360.18, 225.90000000000003 370.8, 225.90000000000003 370.8, 252.90000000000003 360.18, 252.90000000000003 360.18, 279.90000000000003 370.8, 279.90000000000003 370.8, 296.055 357.66, 296.055 357.66, 309.195 370.8, 309.195 370.8, 325.35 360.18, 325.35 360.18000000000006, 370.8 325.35, 370.8 325.35, 360.18 307.845, 360.18 307.845, 355.05 314.055, 355.05 314.055, 345.87 307.845, 345.87 307.845, 336.69 297.405, 336.69 297.405, 345.87 291.195, 345.87 291.195, 355.05 297.405, 355.05 297.405, 360.18 279.90000000000003, 360.18 279.90000000000003, 370.8 252.90000000000003, 370.8 252.90000000000003, 360.18 225.90000000000003, 360.18 225.90000000000003, 370.8 198.90000000000003, 370.8 198.90000000000003, 360.18 171.90000000000003, 360.18 171.90000000000003, 370.8 144.90000000000003, 370.8 144.90000000000003, 360.18 117.90000000000002, 360.18 117.90000000000002, 370.8 90.90000000000002, 370.8 90.90000000000002, 360.18 73.39500000000001, 360.18 73.39500000000001, 355.05 79.60500000000002, 355.05 79.60500000000002, 345.87 73.39500000000001, 345.87 73.39500000000001, 336.69 62.95500000000001, 336.69 62.95500000000001, 345.87 56.74500000000001, 345.87 56.74500000000001, 355.05 62.95500000000001, 355.05 62.95500000000001, 360.18 45.45000000000001, 360.18 45.45000000000001, 370.8 10.62, 370.80000000000007 10.62, 325.35 0, 325.35 0, 309.195 13.139999999999999, 309.195 13.139999999999999, 296.055 0, 296.055 0, 279.90000000000003 10.62, 279.90000000000003 10.62, 252.90000000000003 0, 252.90000000000003 0, 225.90000000000003 10.62, 225.90000000000003 10.62, 198.90000000000003 0, 198.90000000000003 0, 171.90000000000003 10.62, 171.90000000000003 10.62, 144.90000000000003 0, 144.90000000000003 0, 117.90000000000002 10.62, 117.90000000000002 10.62, 90.90000000000002 0, 90.90000000000002 0, 74.745 13.139999999999999, 74.745 13.139999999999999, 61.60500000000001 0, 61.60500000000001 0, 45.45000000000001 10.62, 45.45000000000001 "
       id="polygon10" />
  </g>
  <!-- Left-->
  <g
     transform="translate(764.1, 22.5) "
     id="g12">
    <polygon
       style="stroke:#000000; fill:none; stroke-width:0.9"
       points="0, 10.62 45.45000000000001, 10.62 45.45000000000001, 0 61.60500000000001, 0 61.60500000000001, 13.139999999999999 74.745, 13.139999999999999 74.745, 0 90.90000000000002, 0 90.90000000000002, 10.62 117.90000000000002, 10.62 117.90000000000002, 0 144.90000000000003, 0 144.90000000000003, 10.62 171.90000000000003, 10.62 171.90000000000003, 0 198.90000000000003, 0 198.90000000000003, 10.62 225.90000000000003, 10.62 225.90000000000003, 0 252.90000000000003, 0 252.90000000000003, 10.62 279.90000000000003, 10.62 279.90000000000003, 0 296.055, 0 296.055, 13.139999999999999 309.195, 13.139999999999999 309.195, 0 325.35, 0 325.35, 10.62 370.8, 10.62 370.8, 45.45000000000001 360.18, 45.45000000000001 360.18, 62.95500000000001 355.05, 62.95500000000001 355.05, 56.74500000000001 345.87, 56.74500000000001 345.87, 62.95500000000001 336.69, 62.95500000000001 336.69, 73.39500000000001 345.87, 73.39500000000001 345.87, 79.60500000000002 355.05, 79.60500000000002 355.05, 73.39500000000001 360.18, 73.39500000000001 360.18, 90.90000000000002 370.8, 90.90000000000002 370.8, 117.90000000000002 360.18, 117.90000000000002 360.18, 144.90000000000003 370.8, 144.90000000000003 370.8, 171.90000000000003 360.18, 171.90000000000003 360.18, 198.90000000000003 370.8, 198.90000000000003 370.8, 225.90000000000003 360.18, 225.90000000000003 360.18, 252.90000000000003 370.8, 252.90000000000003 370.8, 279.90000000000003 360.18, 279.90000000000003 360.18, 297.405 355.05, 297.405 355.05, 291.195 345.87, 291.195 345.87, 297.405 336.69, 297.405 336.69, 307.845 345.87, 307.845 345.87, 314.055 355.05, 314.055 355.05, 307.845 360.18, 307.845 360.18, 325.35 370.8, 325.35 370.80000000000007, 360.18 325.35, 360.18 325.35, 370.8 309.195, 370.8 309.195, 357.66 296.055, 357.66 296.055, 370.8 279.90000000000003, 370.8 279.90000000000003, 360.18 252.90000000000003, 360.18 252.90000000000003, 370.8 225.90000000000003, 370.8 225.90000000000003, 360.18 198.90000000000003, 360.18 198.90000000000003, 370.8 171.90000000000003, 370.8 171.90000000000003, 360.18 144.90000000000003, 360.18 144.90000000000003, 370.8 117.90000000000002, 370.8 117.90000000000002, 360.18 90.90000000000002, 360.18 90.90000000000002, 370.8 74.745, 370.8 74.745, 357.66 61.60500000000001, 357.66 61.60500000000001, 370.8 45.45000000000001, 370.8 45.45000000000001, 360.18 0, 360.18000000000006 0, 325.35 10.62, 325.35 10.62, 307.845 15.749999999999998, 307.845 15.749999999999998, 314.055 24.93, 314.055 24.93, 307.845 34.11, 307.845 34.11, 297.405 24.93, 297.405 24.93, 291.195 15.749999999999998, 291.195 15.749999999999998, 297.405 10.62, 297.405 10.62, 279.90000000000003 0, 279.90000000000003 0, 252.90000000000003 10.62, 252.90000000000003 10.62, 225.90000000000003 0, 225.90000000000003 0, 198.90000000000003 10.62, 198.90000000000003 10.62, 171.90000000000003 0, 171.90000000000003 0, 144.90000000000003 10.62, 144.90000000000003 10.62, 117.90000000000002 0, 117.90000000000002 0, 90.90000000000002 10.62, 90.90000000000002 10.62, 73.39500000000001 15.749999999999998, 73.39500000000001 15.749999999999998, 79.60500000000002 24.93, 79.60500000000002 24.93, 73.39500000000001 34.11, 73.39500000000001 34.11, 62.95500000000001 24.93, 62.95500000000001 24.93, 56.74500000000001 15.749999999999998, 56.74500000000001 15.749999999999998, 62.95500000000001 10.62, 62.95500000000001 10.62, 45.45000000000001 0, 45.45000000000001 "
       id="polygon14" />
  </g>
  <!-- Right-->
  <g
     transform="translate(764.1, 393.3) "
     id="g16">
    <polygon
       style="stroke:#000000; fill:none; stroke-width:0.9"
       points="0, 10.62 45.45000000000001, 10.62 45.45000000000001, 0 61.60500000000001, 0 61.60500000000001, 13.139999999999999 74.745, 13.139999999999999 74.745, 0 90.90000000000002, 0 90.90000000000002, 10.62 117.90000000000002, 10.62 117.90000000000002, 0 144.90000000000003, 0 144.90000000000003, 10.62 171.90000000000003, 10.62 171.90000000000003, 0 198.90000000000003, 0 198.90000000000003, 10.62 225.90000000000003, 10.62 225.90000000000003, 0 252.90000000000003, 0 252.90000000000003, 10.62 279.90000000000003, 10.62 279.90000000000003, 0 296.055, 0 296.055, 13.139999999999999 309.195, 13.139999999999999 309.195, 0 325.35, 0 325.35, 10.62 370.8, 10.62 370.8, 45.45000000000001 360.18, 45.45000000000001 360.18, 62.95500000000001 355.05, 62.95500000000001 355.05, 56.74500000000001 345.87, 56.74500000000001 345.87, 62.95500000000001 336.69, 62.95500000000001 336.69, 73.39500000000001 345.87, 73.39500000000001 345.87, 79.60500000000002 355.05, 79.60500000000002 355.05, 73.39500000000001 360.18, 73.39500000000001 360.18, 90.90000000000002 370.8, 90.90000000000002 370.8, 117.90000000000002 360.18, 117.90000000000002 360.18, 144.90000000000003 370.8, 144.90000000000003 370.8, 171.90000000000003 360.18, 171.90000000000003 360.18, 198.90000000000003 370.8, 198.90000000000003 370.8, 225.90000000000003 360.18, 225.90000000000003 360.18, 252.90000000000003 370.8, 252.90000000000003 370.8, 279.90000000000003 360.18, 279.90000000000003 360.18, 297.405 355.05, 297.405 355.05, 291.195 345.87, 291.195 345.87, 297.405 336.69, 297.405 336.69, 307.845 345.87, 307.845 345.87, 314.055 355.05, 314.055 355.05, 307.845 360.18, 307.845 360.18, 325.35 370.8, 325.35 370.80000000000007, 360.18 325.35, 360.18 325.35, 370.8 309.195, 370.8 309.195, 357.66 296.055, 357.66 296.055, 370.8 279.90000000000003, 370.8 279.90000000000003, 360.18 252.90000000000003, 360.18 252.90000000000003, 370.8 225.90000000000003, 370.8 225.90000000000003, 360.18 198.90000000000003, 360.18 198.90000000000003, 370.8 171.90000000000003, 370.8 171.90000000000003, 360.18 144.90000000000003, 360.18 144.90000000000003, 370.8 117.90000000000002, 370.8 117.90000000000002, 360.18 90.90000000000002, 360.18 90.90000000000002, 370.8 74.745, 370.8 74.745, 357.66 61.60500000000001, 357.66 61.60500000000001, 370.8 45.45000000000001, 370.8 45.45000000000001, 360.18 0, 360.18000000000006 0, 325.35 10.62, 325.35 10.62, 307.845 15.749999999999998, 307.845 15.749999999999998, 314.055 24.93, 314.055 24.93, 307.845 34.11, 307.845 34.11, 297.405 24.93, 297.405 24.93, 291.195 15.749999999999998, 291.195 15.749999999999998, 297.405 10.62, 297.405 10.62, 279.90000000000003 0, 279.90000000000003 0, 252.90000000000003 10.62, 252.90000000000003 10.62, 225.90000000000003 0, 225.90000000000003 0, 198.90000000000003 10.62, 198.90000000000003 10.62, 171.90000000000003 0, 171.90000000000003 0, 144.90000000000003 10.62, 144.90000000000003 10.62, 117.90000000000002 0, 117.90000000000002 0, 90.90000000000002 10.62, 90.90000000000002 10.62, 73.39500000000001 15.749999999999998, 73.39500000000001 15.749999999999998, 79.60500000000002 24.93, 79.60500000000002 24.93, 73.39500000000001 34.11, 73.39500000000001 34.11, 62.95500000000001 24.93, 62.95500000000001 24.93, 56.74500000000001 15.749999999999998, 56.74500000000001 15.749999999999998, 62.95500000000001 10.62, 62.95500000000001 10.62, 45.45000000000001 0, 45.45000000000001 "
       id="polygon18" />
  </g>
  <!-- Top-->
  <g
     transform="translate(22.5, 393.3) "
     id="g20">
    <polygon
       style="stroke:#000000;fill:none;stroke-width:0.9;stroke-miterlimit:4;stroke-dasharray:none"
       points="0, 10.62 45.45000000000001, 10.62 45.45000000000001, 0 61.60500000000001, 0 61.60500000000001, 13.139999999999999 74.745, 13.139999999999999 74.745, 0 90.90000000000002, 0 90.90000000000002, 10.62 117.90000000000002, 10.62 117.90000000000002, 0 144.90000000000003, 0 144.90000000000003, 10.62 171.90000000000003, 10.62 171.90000000000003, 0 198.90000000000003, 0 198.90000000000003, 10.62 225.90000000000003, 10.62 225.90000000000003, 0 252.90000000000003, 0 252.90000000000003, 10.62 279.90000000000003, 10.62 279.90000000000003, 0 296.055, 0 296.055, 13.139999999999999 309.195, 13.139999999999999 309.195, 0 325.35, 0 325.35, 10.62 370.8, 10.62 370.8, 45.45000000000001 360.18, 45.45000000000001 360.18, 62.95500000000001 355.05, 62.95500000000001 355.05, 56.74500000000001 345.87, 56.74500000000001 345.87, 62.95500000000001 336.69, 62.95500000000001 336.69, 73.39500000000001 345.87, 73.39500000000001 345.87, 79.60500000000002 355.05, 79.60500000000002 355.05, 73.39500000000001 360.18, 73.39500000000001 360.18, 90.90000000000002 370.8, 90.90000000000002 370.8, 117.90000000000002 360.18, 117.90000000000002 360.18, 144.90000000000003 370.8, 144.90000000000003 370.8, 171.90000000000003 360.18, 171.90000000000003 360.18, 198.90000000000003 370.8, 198.90000000000003 370.8, 225.90000000000003 360.18, 225.90000000000003 360.18, 252.90000000000003 370.8, 252.90000000000003 370.8, 279.90000000000003 360.18, 279.90000000000003 360.18, 297.405 355.05, 297.405 355.05, 291.195 345.87, 291.195 345.87, 297.405 336.69, 297.405 336.69, 307.845 345.87, 307.845 345.87, 314.055 355.05, 314.055 355.05, 307.845 360.18, 307.845 360.18, 325.35 370.8, 325.35 370.80000000000007, 360.18 325.35, 360.18 325.35, 370.8 309.195, 370.8 309.195, 357.66 296.055, 357.66 296.055, 370.8 279.90000000000003, 370.8 279.90000000000003, 360.18 252.90000000000003, 360.18 252.90000000000003, 370.8 225.90000000000003, 370.8 225.90000000000003, 360.18 198.90000000000003, 360.18 198.90000000000003, 370.8 171.90000000000003, 370.8 171.90000000000003, 360.18 144.90000000000003, 360.18 144.90000000000003, 370.8 117.90000000000002, 370.8 117.90000000000002, 360.18 90.90000000000002, 360.18 90.90000000000002, 370.8 74.745, 370.8 74.745, 357.66 61.60500000000001, 357.66 61.60500000000001, 370.8 45.45000000000001, 370.8 45.45000000000001, 360.18 0, 360.18000000000006 0, 325.35 10.62, 325.35 10.62, 307.845 15.749999999999998, 307.845 15.749999999999998, 314.055 24.93, 314.055 24.93, 307.845 34.11, 307.845 34.11, 297.405 24.93, 297.405 24.93, 291.195 15.749999999999998, 291.195 15.749999999999998, 297.405 10.62, 297.405 10.62, 279.90000000000003 0, 279.90000000000003 0, 252.90000000000003 10.62, 252.90000000000003 10.62, 225.90000000000003 0, 225.90000000000003 0, 198.90000000000003 10.62, 198.90000000000003 10.62, 171.90000000000003 0, 171.90000000000003 0, 144.90000000000003 10.62, 144.90000000000003 10.62, 117.90000000000002 0, 117.90000000000002 0, 90.90000000000002 10.62, 90.90000000000002 10.62, 73.39500000000001 15.749999999999998, 73.39500000000001 15.749999999999998, 79.60500000000002 24.93, 79.60500000000002 24.93, 73.39500000000001 34.11, 73.39500000000001 34.11, 62.95500000000001 24.93, 62.95500000000001 24.93, 56.74500000000001 15.749999999999998, 56.74500000000001 15.749999999999998, 62.95500000000001 10.62, 62.95500000000001 10.62, 45.45000000000001 0, 45.45000000000001 "
       id="polygon22" />
  </g>
  <!-- Bottom-->
  <g
     transform="translate(393.3, 393.3) "
     id="g24">
    <polygon
       style="stroke:#000000; fill:none; stroke-width:0.9"
       points="0, 10.62 45.45000000000001, 10.62 45.45000000000001, 0 61.60500000000001, 0 61.60500000000001, 13.139999999999999 74.745, 13.139999999999999 74.745, 0 90.90000000000002, 0 90.90000000000002, 10.62 117.90000000000002, 10.62 117.90000000000002, 0 144.90000000000003, 0 144.90000000000003, 10.62 171.90000000000003, 10.62 171.90000000000003, 0 198.90000000000003, 0 198.90000000000003, 10.62 225.90000000000003, 10.62 225.90000000000003, 0 252.90000000000003, 0 252.90000000000003, 10.62 279.90000000000003, 10.62 279.90000000000003, 0 296.055, 0 296.055, 13.139999999999999 309.195, 13.139999999999999 309.195, 0 325.35, 0 325.35, 10.62 370.8, 10.62 370.8, 45.45000000000001 360.18, 45.45000000000001 360.18, 62.95500000000001 355.05, 62.95500000000001 355.05, 56.74500000000001 345.87, 56.74500000000001 345.87, 62.95500000000001 336.69, 62.95500000000001 336.69, 73.39500000000001 345.87, 73.39500000000001 345.87, 79.60500000000002 355.05, 79.60500000000002 355.05, 73.39500000000001 360.18, 73.39500000000001 360.18, 90.90000000000002 370.8, 90.90000000000002 370.8, 117.90000000000002 360.18, 117.90000000000002 360.18, 144.90000000000003 370.8, 144.90000000000003 370.8, 171.90000000000003 360.18, 171.90000000000003 360.18, 198.90000000000003 370.8, 198.90000000000003 370.8, 225.90000000000003 360.18, 225.90000000000003 360.18, 252.90000000000003 370.8, 252.90000000000003 370.8, 279.90000000000003 360.18, 279.90000000000003 360.18, 297.405 355.05, 297.405 355.05, 291.195 345.87, 291.195 345.87, 297.405 336.69, 297.405 336.69, 307.845 345.87, 307.845 345.87, 314.055 355.05, 314.055 355.05, 307.845 360.18, 307.845 360.18, 325.35 370.8, 325.35 370.80000000000007, 360.18 325.35, 360.18 325.35, 370.8 309.195, 370.8 309.195, 357.66 296.055, 357.66 296.055, 370.8 279.90000000000003, 370.8 279.90000000000003, 360.18 252.90000000000003, 360.18 252.90000000000003, 370.8 225.90000000000003, 370.8 225.90000000000003, 360.18 198.90000000000003, 360.18 198.90000000000003, 370.8 171.90000000000003, 370.8 171.90000000000003, 360.18 144.90000000000003, 360.18 144.90000000000003, 370.8 117.90000000000002, 370.8 117.90000000000002, 360.18 90.90000000000002, 360.18 90.90000000000002, 370.8 74.745, 370.8 74.745, 357.66 61.60500000000001, 357.66 61.60500000000001, 370.8 45.45000000000001, 370.8 45.45000000000001, 360.18 0, 360.18000000000006 0, 325.35 10.62, 325.35 10.62, 307.845 15.749999999999998, 307.845 15.749999999999998, 314.055 24.93, 314.055 24.93, 307.845 34.11, 307.845 34.11, 297.405 24.93, 297.405 24.93, 291.195 15.749999999999998, 291.195 15.749999999999998, 297.405 10.62, 297.405 10.62, 279.90000000000003 0, 279.90000000000003 0, 252.90000000000003 10.62, 252.90000000000003 10.62, 225.90000000000003 0, 225.90000000000003 0, 198.90000000000003 10.62, 198.90000000000003 10.62, 171.90000000000003 0, 171.90000000000003 0, 144.90000000000003 10.62, 144.90000000000003 10.62, 117.90000000000002 0, 117.90000000000002 0, 90.90000000000002 10.62, 90.90000000000002 10.62, 73.39500000000001 15.749999999999998, 73.39500000000001 15.749999999999998, 79.60500000000002 24.93, 79.60500000000002 24.93, 73.39500000000001 34.11, 73.39500000000001 34.11, 62.95500000000001 24.93, 62.95500000000001 24.93, 56.74500000000001 15.749999999999998, 56.74500000000001 15.749999999999998, 62.95500000000001 10.62, 62.95500000000001 10.62, 45.45000000000001 0, 45.45000000000001 "
       id="polygon26" />
  </g>
  <g
     inkscape:groupmode="layer"
     id="layer1"
     inkscape:label="Screen">
    <rect
       style="fill:none;stroke:#000000;stroke-width:1.38771665"
       id="rect4163"
       width="300.00598"
       height="197.78157"
       x="56.441643"
       y="79.582031" />
    <rect
       style="fill:none;stroke:#000000;stroke-width:0.9;stroke-miterlimit:4;stroke-dasharray:none"
       id="rect4165"
       width="43.499046"
       height="17.34944"
       x="54.737736"
       y="295.46677" />
    <rect
       y="324.99686"
       x="54.737736"
       height="17.34944"
       width="43.499046"
       id="rect4167"
       style="fill:none;stroke:#000000;stroke-width:0.9;stroke-miterlimit:4;stroke-dasharray:none" />
    <rect
       style="fill:none;stroke:#000000;stroke-width:0.9;stroke-miterlimit:4;stroke-dasharray:none"
       id="rect4169"
       width="52.415142"
       height="20.879707"
       x="303.60532"
       y="297.59018" />
    <rect
       y="435.43045"
       x="929.83197"
       height="8.5261726"
       width="26.242708"
       id="rect4175"
       style="fill:none;stroke:#000000;stroke-width:0.9;stroke-miterlimit:4;stroke-dasharray:none" />
    <ellipse
       style="opacity:1;fill:none;stroke:#000000;stroke-width:0.89999998;stroke-miterlimit:4;stroke-dasharray:none"
       id="path4187"
       cx="982.39789"
       cy="109.46133"
       rx="9.9432983"
       ry="10.937629" />
    <ellipse
       style="opacity:1;fill:none;stroke:#000000;stroke-width:0.89999998;stroke-miterlimit:4;stroke-dasharray:none"
       id="path4187-3"
       cx="1016.2051"
       cy="176.08144"
       rx="9.9432983"
       ry="10.937629" />
    <ellipse
       style="opacity:1;fill:none;stroke:#000000;stroke-width:0.89999998;stroke-miterlimit:4;stroke-dasharray:none"
       id="path4187-2"
       cx="1044.0464"
       cy="104.48969"
       rx="9.9432983"
       ry="10.937629" />
    <ellipse
       style="opacity:1;fill:none;stroke:#000000;stroke-width:0.89999998;stroke-miterlimit:4;stroke-dasharray:none"
       id="path4187-4"
       cx="855.12372"
       cy="203.92267"
       rx="9.9432983"
       ry="10.937629" />
    <ellipse
       style="opacity:1;fill:none;stroke:#000000;stroke-width:0.89999998;stroke-miterlimit:4;stroke-dasharray:none"
       id="path4187-8"
       cx="546.88141"
       cy="188.0134"
       rx="9.9432983"
       ry="10.937629" />
    <ellipse
       style="opacity:1;fill:none;stroke:#000000;stroke-width:0.89999998;stroke-miterlimit:4;stroke-dasharray:none"
       id="path4187-28"
       cx="648.3031"
       cy="96.535049"
       rx="9.9432983"
       ry="10.937629" />
    <ellipse
       style="opacity:1;fill:none;stroke:#000000;stroke-width:0.89999998;stroke-miterlimit:4;stroke-dasharray:none"
       id="path4187-7"
       cx="536.93811"
       cy="351.0835"
       rx="9.9432983"
       ry="10.937629" />
    <ellipse
       style="opacity:1;fill:none;stroke:#000000;stroke-width:0.89999998;stroke-miterlimit:4;stroke-dasharray:none"
       id="path4187-6"
       cx="115.34226"
       cy="486.31235"
       rx="9.9432983"
       ry="10.937629" />
    <ellipse
       style="opacity:1;fill:none;stroke:#000000;stroke-width:0.89999998;stroke-miterlimit:4;stroke-dasharray:none"
       id="path4187-5"
       cx="483.24432"
       cy="478.3577"
       rx="9.9432983"
       ry="10.937629" />
    <ellipse
       style="opacity:1;fill:none;stroke:#000000;stroke-width:0.89999998;stroke-miterlimit:4;stroke-dasharray:none"
       id="path4187-9"
       cx="650.29175"
       cy="605.63196"
       rx="9.9432983"
       ry="10.937629" />
    <ellipse
       style="opacity:1;fill:none;stroke:#000000;stroke-width:0.89999998;stroke-miterlimit:4;stroke-dasharray:none"
       id="path4187-20"
       cx="616.4845"
       cy="486.31235"
       rx="9.9432983"
       ry="10.937629" />
    <ellipse
       style="opacity:1;fill:none;stroke:#000000;stroke-width:0.89999998;stroke-miterlimit:4;stroke-dasharray:none"
       id="path4187-1"
       cx="254.54845"
       cy="520.11957"
       rx="9.9432983"
       ry="10.937629" />
    <ellipse
       style="opacity:1;fill:none;stroke:#000000;stroke-width:0.89999998;stroke-miterlimit:4;stroke-dasharray:none"
       id="path4187-76"
       cx="188.92267"
       cy="615.57526"
       rx="9.9432983"
       ry="10.937629" />
    <ellipse
       style="opacity:1;fill:none;stroke:#000000;stroke-width:0.89999998;stroke-miterlimit:4;stroke-dasharray:none"
       id="path4187-92"
       cx="863.07831"
       cy="516.14227"
       rx="9.9432983"
       ry="10.937629" />
    <ellipse
       style="opacity:1;fill:none;stroke:#000000;stroke-width:0.89999998;stroke-miterlimit:4;stroke-dasharray:none"
       id="path4187-66"
       cx="904.84021"
       cy="623.52991"
       rx="9.9432983"
       ry="10.937629" />
    <ellipse
       style="opacity:1;fill:none;stroke:#000000;stroke-width:0.89999998;stroke-miterlimit:4;stroke-dasharray:none"
       id="path4187-40"
       cx="978.42059"
       cy="543.98352"
       rx="9.9432983"
       ry="10.937629" />
    <ellipse
       style="opacity:1;fill:none;stroke:#000000;stroke-width:0.89999998;stroke-miterlimit:4;stroke-dasharray:none"
       id="path4187-70"
       cx="1032.1144"
       cy="631.4845"
       rx="9.9432983"
       ry="10.937629" />
    <circle
       style="opacity:1;fill:none;stroke:#000000;stroke-width:0.89999998;stroke-miterlimit:4;stroke-dasharray:none"
       id="path4294"
       cx="141.19484"
       cy="468.41443"
       r="21.875257" />
    <circle
       style="opacity:1;fill:none;stroke:#000000;stroke-width:0.89999998;stroke-miterlimit:4;stroke-dasharray:none"
       id="path4294-3"
       cx="196.87732"
       cy="545.97217"
       r="21.875257" />
    <circle
       style="opacity:1;fill:none;stroke:#000000;stroke-width:0.89999998;stroke-miterlimit:4;stroke-dasharray:none"
       id="path4294-5"
       cx="240.62782"
       cy="470.40308"
       r="21.875257" />
    <circle
       style="opacity:1;fill:none;stroke:#000000;stroke-width:0.89999998;stroke-miterlimit:4;stroke-dasharray:none"
       id="path4294-55"
       cx="121.30824"
       cy="571.82471"
       r="21.875257" />
    <circle
       style="opacity:1;fill:none;stroke:#000000;stroke-width:0.89999998;stroke-miterlimit:4;stroke-dasharray:none"
       id="path4294-8"
       cx="121.30824"
       cy="693.133"
       r="21.875257" />
    <circle
       style="opacity:1;fill:none;stroke:#000000;stroke-width:0.89999998;stroke-miterlimit:4;stroke-dasharray:none"
       id="path4294-58"
       cx="310.23093"
       cy="701.08759"
       r="21.875257" />
    <circle
       style="opacity:1;fill:none;stroke:#000000;stroke-width:0.89999998;stroke-miterlimit:4;stroke-dasharray:none"
       id="path4294-82"
       cx="540.91547"
       cy="623.52991"
       r="21.875257" />
    <circle
       style="opacity:1;fill:none;stroke:#000000;stroke-width:0.89999998;stroke-miterlimit:4;stroke-dasharray:none"
       id="path4294-2"
       cx="586.6546"
       cy="540.00616"
       r="21.875257" />
    <circle
       style="opacity:1;fill:none;stroke:#000000;stroke-width:0.89999998;stroke-miterlimit:4;stroke-dasharray:none"
       id="path4294-6"
       cx="530.97217"
       cy="466.42575"
       r="21.875257" />
    <path
       sodipodi:type="star"
       style="opacity:1;fill:none;stroke:#000000;stroke-width:0.89999998;stroke-miterlimit:4;stroke-dasharray:none"
       id="path4353"
       sodipodi:sides="5"
       sodipodi:cx="572.73401"
       sodipodi:cy="432.61856"
       sodipodi:r1="19.586027"
       sodipodi:r2="9.7930136"
       sodipodi:arg1="0.41822433"
       sodipodi:arg2="1.0465429"
       inkscape:flatsided="false"
       inkscape:rounded="0"
       inkscape:randomized="0"
       d="m 590.63195,440.5732 -12.99588,0.52315 -6.93661,11.00228 -4.51349,-12.19815 -12.60732,-3.19721 10.20639,-8.06203 -0.85515,-12.97826 10.82139,7.21555 12.07881,-4.8238 -3.5184,12.52148 z"
       inkscape:transform-center-x="0.62870879"
       inkscape:transform-center-y="1.2622435" />
    <path
       sodipodi:type="star"
       style="opacity:1;fill:none;stroke:#000000;stroke-width:0.89999998;stroke-miterlimit:4;stroke-dasharray:none"
       id="path4355"
       sodipodi:sides="5"
       sodipodi:cx="632.39377"
       sodipodi:cy="231.76391"
       sodipodi:r1="25.928951"
       sodipodi:r2="12.964475"
       sodipodi:arg1="0.56672922"
       sodipodi:arg2="1.1950477"
       inkscape:flatsided="false"
       inkscape:rounded="0"
       inkscape:randomized="0"
       d="m 654.26906,245.68453 -17.1177,-1.86063 -11.23703,13.04633 -3.52009,-16.85486 -15.88023,-6.65552 14.94216,-8.55624 1.42251,-17.15966 12.75485,11.56681 16.75939,-3.94974 -7.05923,15.70493 z"
       inkscape:transform-center-x="2.0022659"
       inkscape:transform-center-y="0.49317162" />
    <path
       sodipodi:type="star"
       style="opacity:1;fill:none;stroke:#000000;stroke-width:0.89999998;stroke-miterlimit:4;stroke-dasharray:none"
       id="path4359"
       sodipodi:sides="5"
       sodipodi:cx="513.0742"
       sodipodi:cy="134.31958"
       sodipodi:r1="24.274687"
       sodipodi:r2="12.137343"
       sodipodi:arg1="0.96007036"
       sodipodi:arg2="1.5883889"
       inkscape:flatsided="false"
       inkscape:rounded="0"
       inkscape:randomized="0"
       d="m 526.99484,154.20618 -14.13414,-7.75113 -14.39805,7.24912 3.00408,-15.83759 -11.34358,-11.45326 15.99076,-2.03704 7.38734,-14.32763 6.87875,14.57863 15.90921,2.5983 -11.73946,11.04713 z"
       inkscape:transform-center-x="-0.13196015"
       inkscape:transform-center-y="-2.192166" />
    <path
       sodipodi:type="star"
       style="opacity:1;fill:none;stroke:#000000;stroke-width:0.89999998;stroke-miterlimit:4;stroke-dasharray:none"
       id="path4361"
       sodipodi:sides="5"
       sodipodi:cx="853.135"
       sodipodi:cy="293.41237"
       sodipodi:r1="44.020859"
       sodipodi:r2="22.010429"
       sodipodi:arg1="0.32175055"
       sodipodi:arg2="0.95006909"
       inkscape:flatsided="false"
       inkscape:rounded="0"
       inkscape:randomized="0"
       d="m 894.89686,307.333 -28.95999,3.98389 -13.13603,26.11508 -12.73804,-26.3115 -28.89617,-4.4231 21.08745,-20.24529 -4.72279,-28.84871 25.77081,13.79922 25.97733,-13.40638 -5.16023,28.77368 z"
       inkscape:transform-center-x="0.10326479"
       inkscape:transform-center-y="4.1052864" />
    <path
       sodipodi:type="star"
       style="opacity:1;fill:none;stroke:#000000;stroke-width:0.89999998;stroke-miterlimit:4;stroke-dasharray:none"
       id="path4365"
       sodipodi:sides="5"
       sodipodi:cx="966.48861"
       sodipodi:cy="265.57113"
       sodipodi:r1="69.175636"
       sodipodi:r2="34.587818"
       sodipodi:arg1="0.32175055"
       sodipodi:arg2="0.95006909"
       inkscape:flatsided="false"
       inkscape:rounded="0"
       inkscape:randomized="0"
       d="m 1032.1144,287.44639 -45.50861,6.2604 -20.64233,41.03799 -20.01692,-41.34665 -45.40827,-6.95059 33.13743,-31.81403 -7.42152,-45.33369 40.49697,21.68449 40.82155,-21.06716 -8.10895,45.21578 z"
       inkscape:transform-center-x="0.16227324"
       inkscape:transform-center-y="6.4511644" />
    <path
       sodipodi:type="star"
       style="opacity:1;fill:none;stroke:#000000;stroke-width:0.89999998;stroke-miterlimit:4;stroke-dasharray:none"
       id="path4367"
       sodipodi:sides="5"
       sodipodi:cx="1038.0804"
       sodipodi:cy="494.267"
       sodipodi:r1="33.865654"
       sodipodi:r2="16.932829"
       sodipodi:arg1="0.8685394"
       sodipodi:arg2="1.4968579"
       inkscape:flatsided="false"
       inkscape:rounded="0"
       inkscape:randomized="0"
       d="m 1059.9557,520.11957 -20.6244,-8.96601 -19.0783,11.90693 2.1539,-22.38563 -17.2197,-14.46508 21.9556,-4.86907 8.436,-20.84684 11.4154,19.37638 22.4333,1.58103 -14.9004,16.84433 z"
       inkscape:transform-center-x="0.77306521"
       inkscape:transform-center-y="-2.4898181" />
    <path
       sodipodi:type="star"
       style="opacity:1;fill:none;stroke:#000000;stroke-width:0.89999998;stroke-miterlimit:4;stroke-dasharray:none"
       id="path4369"
       sodipodi:sides="5"
       sodipodi:cx="948.5907"
       sodipodi:cy="659.32574"
       sodipodi:r1="37.99329"
       sodipodi:r2="18.996647"
       sodipodi:arg1="0.82241828"
       sodipodi:arg2="1.4507368"
       inkscape:flatsided="false"
       inkscape:rounded="0"
       inkscape:randomized="0"
       d="m 974.44327,687.16698 -23.57732,-8.98134 -20.76496,14.33078 1.25597,-25.19875 -20.0461,-15.3202 24.35355,-6.59234 8.37578,-23.79918 13.79536,21.12446 25.22262,0.61149 -15.82755,19.64798 z"
       inkscape:transform-center-x="1.4061836"
       inkscape:transform-center-y="-2.2645601" />
    <path
       sodipodi:type="star"
       style="opacity:1;fill:none;stroke:#000000;stroke-width:0.89999998;stroke-miterlimit:4;stroke-dasharray:none"
       id="path4371"
       sodipodi:sides="5"
       sodipodi:cx="855.12372"
       sodipodi:cy="563.87012"
       sodipodi:r1="30.936285"
       sodipodi:r2="15.468143"
       sodipodi:arg1="0.78539816"
       sodipodi:arg2="1.4137167"
       inkscape:flatsided="false"
       inkscape:rounded="0"
       inkscape:randomized="0"
       d="m 876.99898,585.74537 -19.45551,-6.59755 -16.46453,12.28673 0.26256,-20.54204 -16.77319,-11.86189 19.61778,-6.09813 6.09813,-19.61778 11.86189,16.77319 20.54204,-0.26256 -12.28673,16.46453 z"
       inkscape:transform-center-x="1.4954882"
       inkscape:transform-center-y="-1.4954882" />
    <path
       sodipodi:type="star"
       style="opacity:1;fill:none;stroke:#000000;stroke-width:0.89999998;stroke-miterlimit:4;stroke-dasharray:none"
       id="path4373"
       sodipodi:sides="5"
       sodipodi:cx="608.52991"
       sodipodi:cy="671.25769"
       sodipodi:r1="51.321293"
       sodipodi:r2="25.660646"
       sodipodi:arg1="0.62024949"
       sodipodi:arg2="1.248568"
       inkscape:flatsided="false"
       inkscape:rounded="0"
       inkscape:randomized="0"
       d="m 650.29176,701.08759 -33.63561,-5.48995 -23.59104,24.59588 -5.17272,-33.68586 -30.6821,-14.83586 30.43869,-15.32906 4.62845,-33.76494 23.98487,24.21198 33.54265,-6.03203 -15.61523,30.29289 z"
       inkscape:transform-center-x="4.7788844"
       inkscape:transform-center-y="0.12796682" />
    <path
       sodipodi:type="star"
       style="opacity:1;fill:none;stroke:#000000;stroke-width:0.89999998;stroke-miterlimit:4;stroke-dasharray:none"
       id="path4375"
       sodipodi:sides="5"
       sodipodi:cx="455.40308"
       sodipodi:cy="520.11957"
       sodipodi:r1="26.754681"
       sodipodi:r2="13.37734"
       sodipodi:arg1="0.83798123"
       sodipodi:arg2="1.4662998"
       inkscape:flatsided="false"
       inkscape:rounded="0"
       inkscape:randomized="0"
       d="m 473.30101,540.00617 -16.50259,-6.58223 -14.77786,9.86287 1.16049,-17.72892 -13.94676,-11.00677 17.21982,-4.37485 6.15828,-16.66544 9.48194,15.02511 17.75279,0.70697 -11.35965,13.66088 z"
       inkscape:transform-center-x="0.86236975"
       inkscape:transform-center-y="-1.7207462" />
    <path
       sodipodi:type="star"
       style="opacity:1;fill:none;stroke:#000000;stroke-width:0.89999998;stroke-miterlimit:4;stroke-dasharray:none"
       id="path4377"
       sodipodi:sides="5"
       sodipodi:cx="296.3103"
       sodipodi:cy="603.64329"
       sodipodi:r1="53.36134"
       sodipodi:r2="26.68067"
       sodipodi:arg1="0.46364761"
       sodipodi:arg2="1.0919661"
       inkscape:flatsided="false"
       inkscape:rounded="0"
       inkscape:randomized="0"
       d="m 344.03814,627.50723 -35.43495,-0.1839 -20.24011,29.0862 -10.7751,-33.75746 -33.91716,-10.26136 28.77557,-20.67936 -0.72186,-35.42807 28.55938,20.97692 33.47104,-11.6344 -11.1249,33.64381 z"
       inkscape:transform-center-x="2.4558267"
       inkscape:transform-center-y="2.7030961" />
    <ellipse
       style="opacity:1;fill:none;stroke:#000000;stroke-width:0.89999998;stroke-miterlimit:4;stroke-dasharray:none"
       id="path4379"
       cx="887.93658"
       cy="114.43298"
       rx="52.699482"
       ry="49.716492" />
    <ellipse
       style="opacity:1;fill:none;stroke:#000000;stroke-width:0.89999998;stroke-miterlimit:4;stroke-dasharray:none"
       id="path4381"
       cx="500.14792"
       cy="261.59381"
       rx="44.744843"
       ry="45.739174" />
    <ellipse
       style="opacity:1;fill:none;stroke:#000000;stroke-width:0.92075193;stroke-miterlimit:4;stroke-dasharray:none"
       id="path4383"
       cx="543.89844"
       cy="257.61649"
       rx="22.859211"
       ry="21.864882" />
    <ellipse
       style="opacity:1;fill:none;stroke:#000000;stroke-width:0.89999998;stroke-miterlimit:4;stroke-dasharray:none"
       id="path4385"
       cx="624.43915"
       cy="307.33298"
       rx="23.863916"
       ry="31.818556" />
  </g>
</svg>
