<?xml version="1.0" encoding="UTF-8" standalone="no"?>
<svg
   xmlns:dc="http://purl.org/dc/elements/1.1/"
   xmlns:cc="http://creativecommons.org/ns#"
   xmlns:rdf="http://www.w3.org/1999/02/22-rdf-syntax-ns#"
   xmlns:svg="http://www.w3.org/2000/svg"
   xmlns="http://www.w3.org/2000/svg"
   xmlns:sodipodi="http://sodipodi.sourceforge.net/DTD/sodipodi-0.dtd"
   xmlns:inkscape="http://www.inkscape.org/namespaces/inkscape"
   version="1.1"
   width="12.86in"
   height="8.74in"
   viewBox=" 0 0 1157.3999999999999 786.6"
   id="svg2"
   inkscape:version="0.91 r13725"
   sodipodi:docname="Case-External-Complete.svg">
  <metadata
     id="metadata32">
    <rdf:RDF>
      <cc:Work
         rdf:about="">
        <dc:format>image/svg+xml</dc:format>
        <dc:type
           rdf:resource="http://purl.org/dc/dcmitype/StillImage" />
        <dc:title></dc:title>
      </cc:Work>
    </rdf:RDF>
  </metadata>
  <defs
     id="defs30" />
  <sodipodi:namedview
     pagecolor="#ffffff"
     bordercolor="#666666"
     borderopacity="1"
     objecttolerance="10"
     gridtolerance="10"
     guidetolerance="10"
     inkscape:pageopacity="0"
     inkscape:pageshadow="2"
     inkscape:window-width="1366"
     inkscape:window-height="705"
     id="namedview28"
     showgrid="false"
     inkscape:zoom="0.50285123"
     inkscape:cx="506.00183"
     inkscape:cy="324.52645"
     inkscape:window-x="-8"
     inkscape:window-y="-8"
     inkscape:window-maximized="1"
     inkscape:current-layer="layer1" />
  <!-- Front-->
  <g
     transform="translate(22.5,22.5)"
     id="g4">
    <polygon
       style="fill:none;stroke:#000000;stroke-width:0.89999998"
       points="56.745,24.93 62.955,24.93 62.955,34.11 73.395,34.11 73.395,24.93 79.605,24.93 79.605,15.75 73.395,15.75 73.395,10.62 90.9,10.62 90.9,0 117.9,0 117.9,10.62 144.9,10.62 144.9,0 171.9,0 171.9,10.62 198.9,10.62 198.9,0 225.9,0 225.9,10.62 252.9,10.62 252.9,0 279.9,0 279.9,10.62 297.405,10.62 297.405,15.75 291.195,15.75 291.195,24.93 297.405,24.93 297.405,34.11 307.845,34.11 307.845,24.93 314.055,24.93 314.055,15.75 307.845,15.75 307.845,10.62 325.35,10.62 325.35,0 360.18,0 360.18,45.45 370.8,45.45 370.8,61.605 357.66,61.605 357.66,74.745 370.8,74.745 370.8,90.9 360.18,90.9 360.18,117.9 370.8,117.9 370.8,144.9 360.18,144.9 360.18,171.9 370.8,171.9 370.8,198.9 360.18,198.9 360.18,225.9 370.8,225.9 370.8,252.9 360.18,252.9 360.18,279.9 370.8,279.9 370.8,296.055 357.66,296.055 357.66,309.195 370.8,309.195 370.8,325.35 360.18,325.35 360.18,370.8 325.35,370.8 325.35,360.18 307.845,360.18 307.845,355.05 314.055,355.05 314.055,345.87 307.845,345.87 307.845,336.69 297.405,336.69 297.405,345.87 291.195,345.87 291.195,355.05 297.405,355.05 297.405,360.18 279.9,360.18 279.9,370.8 252.9,370.8 252.9,360.18 225.9,360.18 225.9,370.8 198.9,370.8 198.9,360.18 171.9,360.18 171.9,370.8 144.9,370.8 144.9,360.18 117.9,360.18 117.9,370.8 90.9,370.8 90.9,360.18 73.395,360.18 73.395,355.05 79.605,355.05 79.605,345.87 73.395,345.87 73.395,336.69 62.955,336.69 62.955,345.87 56.745,345.87 56.745,355.05 62.955,355.05 62.955,360.18 45.45,360.18 45.45,370.8 10.62,370.8 10.62,325.35 0,325.35 0,309.195 13.14,309.195 13.14,296.055 0,296.055 0,279.9 10.62,279.9 10.62,252.9 0,252.9 0,225.9 10.62,225.9 10.62,198.9 0,198.9 0,171.9 10.62,171.9 10.62,144.9 0,144.9 0,117.9 10.62,117.9 10.62,90.9 0,90.9 0,74.745 13.14,74.745 13.14,61.605 0,61.605 0,45.45 10.62,45.45 10.62,0 45.45,0 45.45,10.62 62.955,10.62 62.955,15.75 56.745,15.75 "
       id="polygon6" />
  </g>
  <!-- Back-->
  <g
     transform="translate(393.3, 22.5) "
     id="g8">
    <polygon
       style="stroke:#000000; fill:none; stroke-width:0.9"
       points="10.62, 0 45.45000000000001, 0 45.45000000000001, 10.62 62.95500000000001, 10.62 62.95500000000001, 15.749999999999998 56.74500000000001, 15.749999999999998 56.74500000000001, 24.93 62.95500000000001, 24.93 62.95500000000001, 34.11 73.39500000000001, 34.11 73.39500000000001, 24.93 79.60500000000002, 24.93 79.60500000000002, 15.749999999999998 73.39500000000001, 15.749999999999998 73.39500000000001, 10.62 90.90000000000002, 10.62 90.90000000000002, 0 117.90000000000002, 0 117.90000000000002, 10.62 144.90000000000003, 10.62 144.90000000000003, 0 171.90000000000003, 0 171.90000000000003, 10.62 198.90000000000003, 10.62 198.90000000000003, 0 225.90000000000003, 0 225.90000000000003, 10.62 252.90000000000003, 10.62 252.90000000000003, 0 279.90000000000003, 0 279.90000000000003, 10.62 297.405, 10.62 297.405, 15.749999999999998 291.195, 15.749999999999998 291.195, 24.93 297.405, 24.93 297.405, 34.11 307.845, 34.11 307.845, 24.93 314.055, 24.93 314.055, 15.749999999999998 307.845, 15.749999999999998 307.845, 10.62 325.35, 10.62 325.35, 0 360.18, 0 360.18, 45.45000000000001 370.8, 45.45000000000001 370.8, 61.60500000000001 357.66, 61.60500000000001 357.66, 74.745 370.8, 74.745 370.8, 90.90000000000002 360.18, 90.90000000000002 360.18, 117.90000000000002 370.8, 117.90000000000002 370.8, 144.90000000000003 360.18, 144.90000000000003 360.18, 171.90000000000003 370.8, 171.90000000000003 370.8, 198.90000000000003 360.18, 198.90000000000003 360.18, 225.90000000000003 370.8, 225.90000000000003 370.8, 252.90000000000003 360.18, 252.90000000000003 360.18, 279.90000000000003 370.8, 279.90000000000003 370.8, 296.055 357.66, 296.055 357.66, 309.195 370.8, 309.195 370.8, 325.35 360.18, 325.35 360.18000000000006, 370.8 325.35, 370.8 325.35, 360.18 307.845, 360.18 307.845, 355.05 314.055, 355.05 314.055, 345.87 307.845, 345.87 307.845, 336.69 297.405, 336.69 297.405, 345.87 291.195, 345.87 291.195, 355.05 297.405, 355.05 297.405, 360.18 279.90000000000003, 360.18 279.90000000000003, 370.8 252.90000000000003, 370.8 252.90000000000003, 360.18 225.90000000000003, 360.18 225.90000000000003, 370.8 198.90000000000003, 370.8 198.90000000000003, 360.18 171.90000000000003, 360.18 171.90000000000003, 370.8 144.90000000000003, 370.8 144.90000000000003, 360.18 117.90000000000002, 360.18 117.90000000000002, 370.8 90.90000000000002, 370.8 90.90000000000002, 360.18 73.39500000000001, 360.18 73.39500000000001, 355.05 79.60500000000002, 355.05 79.60500000000002, 345.87 73.39500000000001, 345.87 73.39500000000001, 336.69 62.95500000000001, 336.69 62.95500000000001, 345.87 56.74500000000001, 345.87 56.74500000000001, 355.05 62.95500000000001, 355.05 62.95500000000001, 360.18 45.45000000000001, 360.18 45.45000000000001, 370.8 10.62, 370.80000000000007 10.62, 325.35 0, 325.35 0, 309.195 13.139999999999999, 309.195 13.139999999999999, 296.055 0, 296.055 0, 279.90000000000003 10.62, 279.90000000000003 10.62, 252.90000000000003 0, 252.90000000000003 0, 225.90000000000003 10.62, 225.90000000000003 10.62, 198.90000000000003 0, 198.90000000000003 0, 171.90000000000003 10.62, 171.90000000000003 10.62, 144.90000000000003 0, 144.90000000000003 0, 117.90000000000002 10.62, 117.90000000000002 10.62, 90.90000000000002 0, 90.90000000000002 0, 74.745 13.139999999999999, 74.745 13.139999999999999, 61.60500000000001 0, 61.60500000000001 0, 45.45000000000001 10.62, 45.45000000000001 "
       id="polygon10" />
  </g>
  <!-- Left-->
  <g
     transform="translate(764.1, 22.5) "
     id="g12">
    <polygon
       style="stroke:#000000; fill:none; stroke-width:0.9"
       points="0, 10.62 45.45000000000001, 10.62 45.45000000000001, 0 61.60500000000001, 0 61.60500000000001, 13.139999999999999 74.745, 13.139999999999999 74.745, 0 90.90000000000002, 0 90.90000000000002, 10.62 117.90000000000002, 10.62 117.90000000000002, 0 144.90000000000003, 0 144.90000000000003, 10.62 171.90000000000003, 10.62 171.90000000000003, 0 198.90000000000003, 0 198.90000000000003, 10.62 225.90000000000003, 10.62 225.90000000000003, 0 252.90000000000003, 0 252.90000000000003, 10.62 279.90000000000003, 10.62 279.90000000000003, 0 296.055, 0 296.055, 13.139999999999999 309.195, 13.139999999999999 309.195, 0 325.35, 0 325.35, 10.62 370.8, 10.62 370.8, 45.45000000000001 360.18, 45.45000000000001 360.18, 62.95500000000001 355.05, 62.95500000000001 355.05, 56.74500000000001 345.87, 56.74500000000001 345.87, 62.95500000000001 336.69, 62.95500000000001 336.69, 73.39500000000001 345.87, 73.39500000000001 345.87, 79.60500000000002 355.05, 79.60500000000002 355.05, 73.39500000000001 360.18, 73.39500000000001 360.18, 90.90000000000002 370.8, 90.90000000000002 370.8, 117.90000000000002 360.18, 117.90000000000002 360.18, 144.90000000000003 370.8, 144.90000000000003 370.8, 171.90000000000003 360.18, 171.90000000000003 360.18, 198.90000000000003 370.8, 198.90000000000003 370.8, 225.90000000000003 360.18, 225.90000000000003 360.18, 252.90000000000003 370.8, 252.90000000000003 370.8, 279.90000000000003 360.18, 279.90000000000003 360.18, 297.405 355.05, 297.405 355.05, 291.195 345.87, 291.195 345.87, 297.405 336.69, 297.405 336.69, 307.845 345.87, 307.845 345.87, 314.055 355.05, 314.055 355.05, 307.845 360.18, 307.845 360.18, 325.35 370.8, 325.35 370.80000000000007, 360.18 325.35, 360.18 325.35, 370.8 309.195, 370.8 309.195, 357.66 296.055, 357.66 296.055, 370.8 279.90000000000003, 370.8 279.90000000000003, 360.18 252.90000000000003, 360.18 252.90000000000003, 370.8 225.90000000000003, 370.8 225.90000000000003, 360.18 198.90000000000003, 360.18 198.90000000000003, 370.8 171.90000000000003, 370.8 171.90000000000003, 360.18 144.90000000000003, 360.18 144.90000000000003, 370.8 117.90000000000002, 370.8 117.90000000000002, 360.18 90.90000000000002, 360.18 90.90000000000002, 370.8 74.745, 370.8 74.745, 357.66 61.60500000000001, 357.66 61.60500000000001, 370.8 45.45000000000001, 370.8 45.45000000000001, 360.18 0, 360.18000000000006 0, 325.35 10.62, 325.35 10.62, 307.845 15.749999999999998, 307.845 15.749999999999998, 314.055 24.93, 314.055 24.93, 307.845 34.11, 307.845 34.11, 297.405 24.93, 297.405 24.93, 291.195 15.749999999999998, 291.195 15.749999999999998, 297.405 10.62, 297.405 10.62, 279.90000000000003 0, 279.90000000000003 0, 252.90000000000003 10.62, 252.90000000000003 10.62, 225.90000000000003 0, 225.90000000000003 0, 198.90000000000003 10.62, 198.90000000000003 10.62, 171.90000000000003 0, 171.90000000000003 0, 144.90000000000003 10.62, 144.90000000000003 10.62, 117.90000000000002 0, 117.90000000000002 0, 90.90000000000002 10.62, 90.90000000000002 10.62, 73.39500000000001 15.749999999999998, 73.39500000000001 15.749999999999998, 79.60500000000002 24.93, 79.60500000000002 24.93, 73.39500000000001 34.11, 73.39500000000001 34.11, 62.95500000000001 24.93, 62.95500000000001 24.93, 56.74500000000001 15.749999999999998, 56.74500000000001 15.749999999999998, 62.95500000000001 10.62, 62.95500000000001 10.62, 45.45000000000001 0, 45.45000000000001 "
       id="polygon14" />
  </g>
  <!-- Right-->
  <g
     transform="translate(764.1, 393.3) "
     id="g16">
    <polygon
       style="stroke:#000000; fill:none; stroke-width:0.9"
       points="0, 10.62 45.45000000000001, 10.62 45.45000000000001, 0 61.60500000000001, 0 61.60500000000001, 13.139999999999999 74.745, 13.139999999999999 74.745, 0 90.90000000000002, 0 90.90000000000002, 10.62 117.90000000000002, 10.62 117.90000000000002, 0 144.90000000000003, 0 144.90000000000003, 10.62 171.90000000000003, 10.62 171.90000000000003, 0 198.90000000000003, 0 198.90000000000003, 10.62 225.90000000000003, 10.62 225.90000000000003, 0 252.90000000000003, 0 252.90000000000003, 10.62 279.90000000000003, 10.62 279.90000000000003, 0 296.055, 0 296.055, 13.139999999999999 309.195, 13.139999999999999 309.195, 0 325.35, 0 325.35, 10.62 370.8, 10.62 370.8, 45.45000000000001 360.18, 45.45000000000001 360.18, 62.95500000000001 355.05, 62.95500000000001 355.05, 56.74500000000001 345.87, 56.74500000000001 345.87, 62.95500000000001 336.69, 62.95500000000001 336.69, 73.39500000000001 345.87, 73.39500000000001 345.87, 79.60500000000002 355.05, 79.60500000000002 355.05, 73.39500000000001 360.18, 73.39500000000001 360.18, 90.90000000000002 370.8, 90.90000000000002 370.8, 117.90000000000002 360.18, 117.90000000000002 360.18, 144.90000000000003 370.8, 144.90000000000003 370.8, 171.90000000000003 360.18, 171.90000000000003 360.18, 198.90000000000003 370.8, 198.90000000000003 370.8, 225.90000000000003 360.18, 225.90000000000003 360.18, 252.90000000000003 370.8, 252.90000000000003 370.8, 279.90000000000003 360.18, 279.90000000000003 360.18, 297.405 355.05, 297.405 355.05, 291.195 345.87, 291.195 345.87, 297.405 336.69, 297.405 336.69, 307.845 345.87, 307.845 345.87, 314.055 355.05, 314.055 355.05, 307.845 360.18, 307.845 360.18, 325.35 370.8, 325.35 370.80000000000007, 360.18 325.35, 360.18 325.35, 370.8 309.195, 370.8 309.195, 357.66 296.055, 357.66 296.055, 370.8 279.90000000000003, 370.8 279.90000000000003, 360.18 252.90000000000003, 360.18 252.90000000000003, 370.8 225.90000000000003, 370.8 225.90000000000003, 360.18 198.90000000000003, 360.18 198.90000000000003, 370.8 171.90000000000003, 370.8 171.90000000000003, 360.18 144.90000000000003, 360.18 144.90000000000003, 370.8 117.90000000000002, 370.8 117.90000000000002, 360.18 90.90000000000002, 360.18 90.90000000000002, 370.8 74.745, 370.8 74.745, 357.66 61.60500000000001, 357.66 61.60500000000001, 370.8 45.45000000000001, 370.8 45.45000000000001, 360.18 0, 360.18000000000006 0, 325.35 10.62, 325.35 10.62, 307.845 15.749999999999998, 307.845 15.749999999999998, 314.055 24.93, 314.055 24.93, 307.845 34.11, 307.845 34.11, 297.405 24.93, 297.405 24.93, 291.195 15.749999999999998, 291.195 15.749999999999998, 297.405 10.62, 297.405 10.62, 279.90000000000003 0, 279.90000000000003 0, 252.90000000000003 10.62, 252.90000000000003 10.62, 225.90000000000003 0, 225.90000000000003 0, 198.90000000000003 10.62, 198.90000000000003 10.62, 171.90000000000003 0, 171.90000000000003 0, 144.90000000000003 10.62, 144.90000000000003 10.62, 117.90000000000002 0, 117.90000000000002 0, 90.90000000000002 10.62, 90.90000000000002 10.62, 73.39500000000001 15.749999999999998, 73.39500000000001 15.749999999999998, 79.60500000000002 24.93, 79.60500000000002 24.93, 73.39500000000001 34.11, 73.39500000000001 34.11, 62.95500000000001 24.93, 62.95500000000001 24.93, 56.74500000000001 15.749999999999998, 56.74500000000001 15.749999999999998, 62.95500000000001 10.62, 62.95500000000001 10.62, 45.45000000000001 0, 45.45000000000001 "
       id="polygon18" />
  </g>
  <!-- Top-->
  <g
     transform="translate(22.5, 393.3) "
     id="g20">
    <polygon
       style="stroke:#000000;fill:none;stroke-width:0.9;stroke-miterlimit:4;stroke-dasharray:none"
       points="0, 10.62 45.45000000000001, 10.62 45.45000000000001, 0 61.60500000000001, 0 61.60500000000001, 13.139999999999999 74.745, 13.139999999999999 74.745, 0 90.90000000000002, 0 90.90000000000002, 10.62 117.90000000000002, 10.62 117.90000000000002, 0 144.90000000000003, 0 144.90000000000003, 10.62 171.90000000000003, 10.62 171.90000000000003, 0 198.90000000000003, 0 198.90000000000003, 10.62 225.90000000000003, 10.62 225.90000000000003, 0 252.90000000000003, 0 252.90000000000003, 10.62 279.90000000000003, 10.62 279.90000000000003, 0 296.055, 0 296.055, 13.139999999999999 309.195, 13.139999999999999 309.195, 0 325.35, 0 325.35, 10.62 370.8, 10.62 370.8, 45.45000000000001 360.18, 45.45000000000001 360.18, 62.95500000000001 355.05, 62.95500000000001 355.05, 56.74500000000001 345.87, 56.74500000000001 345.87, 62.95500000000001 336.69, 62.95500000000001 336.69, 73.39500000000001 345.87, 73.39500000000001 345.87, 79.60500000000002 355.05, 79.60500000000002 355.05, 73.39500000000001 360.18, 73.39500000000001 360.18, 90.90000000000002 370.8, 90.90000000000002 370.8, 117.90000000000002 360.18, 117.90000000000002 360.18, 144.90000000000003 370.8, 144.90000000000003 370.8, 171.90000000000003 360.18, 171.90000000000003 360.18, 198.90000000000003 370.8, 198.90000000000003 370.8, 225.90000000000003 360.18, 225.90000000000003 360.18, 252.90000000000003 370.8, 252.90000000000003 370.8, 279.90000000000003 360.18, 279.90000000000003 360.18, 297.405 355.05, 297.405 355.05, 291.195 345.87, 291.195 345.87, 297.405 336.69, 297.405 336.69, 307.845 345.87, 307.845 345.87, 314.055 355.05, 314.055 355.05, 307.845 360.18, 307.845 360.18, 325.35 370.8, 325.35 370.80000000000007, 360.18 325.35, 360.18 325.35, 370.8 309.195, 370.8 309.195, 357.66 296.055, 357.66 296.055, 370.8 279.90000000000003, 370.8 279.90000000000003, 360.18 252.90000000000003, 360.18 252.90000000000003, 370.8 225.90000000000003, 370.8 225.90000000000003, 360.18 198.90000000000003, 360.18 198.90000000000003, 370.8 171.90000000000003, 370.8 171.90000000000003, 360.18 144.90000000000003, 360.18 144.90000000000003, 370.8 117.90000000000002, 370.8 117.90000000000002, 360.18 90.90000000000002, 360.18 90.90000000000002, 370.8 74.745, 370.8 74.745, 357.66 61.60500000000001, 357.66 61.60500000000001, 370.8 45.45000000000001, 370.8 45.45000000000001, 360.18 0, 360.18000000000006 0, 325.35 10.62, 325.35 10.62, 307.845 15.749999999999998, 307.845 15.749999999999998, 314.055 24.93, 314.055 24.93, 307.845 34.11, 307.845 34.11, 297.405 24.93, 297.405 24.93, 291.195 15.749999999999998, 291.195 15.749999999999998, 297.405 10.62, 297.405 10.62, 279.90000000000003 0, 279.90000000000003 0, 252.90000000000003 10.62, 252.90000000000003 10.62, 225.90000000000003 0, 225.90000000000003 0, 198.90000000000003 10.62, 198.90000000000003 10.62, 171.90000000000003 0, 171.90000000000003 0, 144.90000000000003 10.62, 144.90000000000003 10.62, 117.90000000000002 0, 117.90000000000002 0, 90.90000000000002 10.62, 90.90000000000002 10.62, 73.39500000000001 15.749999999999998, 73.39500000000001 15.749999999999998, 79.60500000000002 24.93, 79.60500000000002 24.93, 73.39500000000001 34.11, 73.39500000000001 34.11, 62.95500000000001 24.93, 62.95500000000001 24.93, 56.74500000000001 15.749999999999998, 56.74500000000001 15.749999999999998, 62.95500000000001 10.62, 62.95500000000001 10.62, 45.45000000000001 0, 45.45000000000001 "
       id="polygon22" />
  </g>
  <!-- Bottom-->
  <g
     transform="translate(393.3, 393.3) "
     id="g24">
    <polygon
       style="stroke:#000000; fill:none; stroke-width:0.9"
       points="0, 10.62 45.45000000000001, 10.62 45.45000000000001, 0 61.60500000000001, 0 61.60500000000001, 13.139999999999999 74.745, 13.139999999999999 74.745, 0 90.90000000000002, 0 90.90000000000002, 10.62 117.90000000000002, 10.62 117.90000000000002, 0 144.90000000000003, 0 144.90000000000003, 10.62 171.90000000000003, 10.62 171.90000000000003, 0 198.90000000000003, 0 198.90000000000003, 10.62 225.90000000000003, 10.62 225.90000000000003, 0 252.90000000000003, 0 252.90000000000003, 10.62 279.90000000000003, 10.62 279.90000000000003, 0 296.055, 0 296.055, 13.139999999999999 309.195, 13.139999999999999 309.195, 0 325.35, 0 325.35, 10.62 370.8, 10.62 370.8, 45.45000000000001 360.18, 45.45000000000001 360.18, 62.95500000000001 355.05, 62.95500000000001 355.05, 56.74500000000001 345.87, 56.74500000000001 345.87, 62.95500000000001 336.69, 62.95500000000001 336.69, 73.39500000000001 345.87, 73.39500000000001 345.87, 79.60500000000002 355.05, 79.60500000000002 355.05, 73.39500000000001 360.18, 73.39500000000001 360.18, 90.90000000000002 370.8, 90.90000000000002 370.8, 117.90000000000002 360.18, 117.90000000000002 360.18, 144.90000000000003 370.8, 144.90000000000003 370.8, 171.90000000000003 360.18, 171.90000000000003 360.18, 198.90000000000003 370.8, 198.90000000000003 370.8, 225.90000000000003 360.18, 225.90000000000003 360.18, 252.90000000000003 370.8, 252.90000000000003 370.8, 279.90000000000003 360.18, 279.90000000000003 360.18, 297.405 355.05, 297.405 355.05, 291.195 345.87, 291.195 345.87, 297.405 336.69, 297.405 336.69, 307.845 345.87, 307.845 345.87, 314.055 355.05, 314.055 355.05, 307.845 360.18, 307.845 360.18, 325.35 370.8, 325.35 370.80000000000007, 360.18 325.35, 360.18 325.35, 370.8 309.195, 370.8 309.195, 357.66 296.055, 357.66 296.055, 370.8 279.90000000000003, 370.8 279.90000000000003, 360.18 252.90000000000003, 360.18 252.90000000000003, 370.8 225.90000000000003, 370.8 225.90000000000003, 360.18 198.90000000000003, 360.18 198.90000000000003, 370.8 171.90000000000003, 370.8 171.90000000000003, 360.18 144.90000000000003, 360.18 144.90000000000003, 370.8 117.90000000000002, 370.8 117.90000000000002, 360.18 90.90000000000002, 360.18 90.90000000000002, 370.8 74.745, 370.8 74.745, 357.66 61.60500000000001, 357.66 61.60500000000001, 370.8 45.45000000000001, 370.8 45.45000000000001, 360.18 0, 360.18000000000006 0, 325.35 10.62, 325.35 10.62, 307.845 15.749999999999998, 307.845 15.749999999999998, 314.055 24.93, 314.055 24.93, 307.845 34.11, 307.845 34.11, 297.405 24.93, 297.405 24.93, 291.195 15.749999999999998, 291.195 15.749999999999998, 297.405 10.62, 297.405 10.62, 279.90000000000003 0, 279.90000000000003 0, 252.90000000000003 10.62, 252.90000000000003 10.62, 225.90000000000003 0, 225.90000000000003 0, 198.90000000000003 10.62, 198.90000000000003 10.62, 171.90000000000003 0, 171.90000000000003 0, 144.90000000000003 10.62, 144.90000000000003 10.62, 117.90000000000002 0, 117.90000000000002 0, 90.90000000000002 10.62, 90.90000000000002 10.62, 73.39500000000001 15.749999999999998, 73.39500000000001 15.749999999999998, 79.60500000000002 24.93, 79.60500000000002 24.93, 73.39500000000001 34.11, 73.39500000000001 34.11, 62.95500000000001 24.93, 62.95500000000001 24.93, 56.74500000000001 15.749999999999998, 56.74500000000001 15.749999999999998, 62.95500000000001 10.62, 62.95500000000001 10.62, 45.45000000000001 0, 45.45000000000001 "
       id="polygon26" />
  </g>
  <g
     inkscape:groupmode="layer"
     id="layer1"
     inkscape:label="Screen">
    <rect
       style="fill:none;stroke:#000000;stroke-width:1.38771665"
       id="rect4163"
       width="300.00598"
       height="197.78157"
       x="56.441643"
       y="79.582031" />
    <rect
       style="fill:none;stroke:#000000;stroke-width:0.9;stroke-miterlimit:4;stroke-dasharray:none"
       id="rect4165"
       width="43.499046"
       height="17.34944"
       x="54.737736"
       y="295.46677" />
    <rect
       y="324.99686"
       x="54.737736"
       height="17.34944"
       width="43.499046"
       id="rect4167"
       style="fill:none;stroke:#000000;stroke-width:0.9;stroke-miterlimit:4;stroke-dasharray:none" />
    <rect
       style="fill:none;stroke:#000000;stroke-width:0.9;stroke-miterlimit:4;stroke-dasharray:none"
       id="rect4169"
       width="52.415142"
       height="20.879707"
       x="303.60532"
       y="297.59018" />
    <rect
       y="435.43045"
       x="929.83197"
       height="8.5261726"
       width="26.242708"
       id="rect4175"
       style="fill:none;stroke:#000000;stroke-width:0.9;stroke-miterlimit:4;stroke-dasharray:none" />
  </g>
</svg>
