<svg xmlns="http://www.w3.org/2000/svg" version="1.1" width="12.36in" height="8.24in" viewBox = " 0 0 1112.3999999999999 741.6" >
<!-- Front--> 
<g transform="translate(0, 0) " > 
<polygon style="stroke:#0000FF; fill:none; stroke-width:0.9" points="10.62, 0 45.45000000000001, 0 45.45000000000001, 10.62 62.95500000000001, 10.62 62.95500000000001, 15.749999999999998 56.74500000000001, 15.749999999999998 56.74500000000001, 24.93 62.95500000000001, 24.93 62.95500000000001, 34.11 73.39500000000001, 34.11 73.39500000000001, 24.93 79.60500000000002, 24.93 79.60500000000002, 15.749999999999998 73.39500000000001, 15.749999999999998 73.39500000000001, 10.62 90.90000000000002, 10.62 90.90000000000002, 0 117.90000000000002, 0 117.90000000000002, 10.62 144.90000000000003, 10.62 144.90000000000003, 0 171.90000000000003, 0 171.90000000000003, 10.62 198.90000000000003, 10.62 198.90000000000003, 0 225.90000000000003, 0 225.90000000000003, 10.62 252.90000000000003, 10.62 252.90000000000003, 0 279.90000000000003, 0 279.90000000000003, 10.62 297.405, 10.62 297.405, 15.749999999999998 291.195, 15.749999999999998 291.195, 24.93 297.405, 24.93 297.405, 34.11 307.845, 34.11 307.845, 24.93 314.055, 24.93 314.055, 15.749999999999998 307.845, 15.749999999999998 307.845, 10.62 325.35, 10.62 325.35, 0 360.18, 0 360.18, 45.45000000000001 370.8, 45.45000000000001 370.8, 61.60500000000001 357.66, 61.60500000000001 357.66, 74.745 370.8, 74.745 370.8, 90.90000000000002 360.18, 90.90000000000002 360.18, 117.90000000000002 370.8, 117.90000000000002 370.8, 144.90000000000003 360.18, 144.90000000000003 360.18, 171.90000000000003 370.8, 171.90000000000003 370.8, 198.90000000000003 360.18, 198.90000000000003 360.18, 225.90000000000003 370.8, 225.90000000000003 370.8, 252.90000000000003 360.18, 252.90000000000003 360.18, 279.90000000000003 370.8, 279.90000000000003 370.8, 296.055 357.66, 296.055 357.66, 309.195 370.8, 309.195 370.8, 325.35 360.18, 325.35 360.18000000000006, 370.8 325.35, 370.8 325.35, 360.18 307.845, 360.18 307.845, 355.05 314.055, 355.05 314.055, 345.87 307.845, 345.87 307.845, 336.69 297.405, 336.69 297.405, 345.87 291.195, 345.87 291.195, 355.05 297.405, 355.05 297.405, 360.18 279.90000000000003, 360.18 279.90000000000003, 370.8 252.90000000000003, 370.8 252.90000000000003, 360.18 225.90000000000003, 360.18 225.90000000000003, 370.8 198.90000000000003, 370.8 198.90000000000003, 360.18 171.90000000000003, 360.18 171.90000000000003, 370.8 144.90000000000003, 370.8 144.90000000000003, 360.18 117.90000000000002, 360.18 117.90000000000002, 370.8 90.90000000000002, 370.8 90.90000000000002, 360.18 73.39500000000001, 360.18 73.39500000000001, 355.05 79.60500000000002, 355.05 79.60500000000002, 345.87 73.39500000000001, 345.87 73.39500000000001, 336.69 62.95500000000001, 336.69 62.95500000000001, 345.87 56.74500000000001, 345.87 56.74500000000001, 355.05 62.95500000000001, 355.05 62.95500000000001, 360.18 45.45000000000001, 360.18 45.45000000000001, 370.8 10.62, 370.80000000000007 10.62, 325.35 0, 325.35 0, 309.195 13.139999999999999, 309.195 13.139999999999999, 296.055 0, 296.055 0, 279.90000000000003 10.62, 279.90000000000003 10.62, 252.90000000000003 0, 252.90000000000003 0, 225.90000000000003 10.62, 225.90000000000003 10.62, 198.90000000000003 0, 198.90000000000003 0, 171.90000000000003 10.62, 171.90000000000003 10.62, 144.90000000000003 0, 144.90000000000003 0, 117.90000000000002 10.62, 117.90000000000002 10.62, 90.90000000000002 0, 90.90000000000002 0, 74.745 13.139999999999999, 74.745 13.139999999999999, 61.60500000000001 0, 61.60500000000001 0, 45.45000000000001 10.62, 45.45000000000001 "/> 
</g>
<!-- Back--> 
<g transform="translate(370.8, 0) " > 
<polygon style="stroke:#0000FF; fill:none; stroke-width:0.9" points="10.62, 0 45.45000000000001, 0 45.45000000000001, 10.62 62.95500000000001, 10.62 62.95500000000001, 15.749999999999998 56.74500000000001, 15.749999999999998 56.74500000000001, 24.93 62.95500000000001, 24.93 62.95500000000001, 34.11 73.39500000000001, 34.11 73.39500000000001, 24.93 79.60500000000002, 24.93 79.60500000000002, 15.749999999999998 73.39500000000001, 15.749999999999998 73.39500000000001, 10.62 90.90000000000002, 10.62 90.90000000000002, 0 117.90000000000002, 0 117.90000000000002, 10.62 144.90000000000003, 10.62 144.90000000000003, 0 171.90000000000003, 0 171.90000000000003, 10.62 198.90000000000003, 10.62 198.90000000000003, 0 225.90000000000003, 0 225.90000000000003, 10.62 252.90000000000003, 10.62 252.90000000000003, 0 279.90000000000003, 0 279.90000000000003, 10.62 297.405, 10.62 297.405, 15.749999999999998 291.195, 15.749999999999998 291.195, 24.93 297.405, 24.93 297.405, 34.11 307.845, 34.11 307.845, 24.93 314.055, 24.93 314.055, 15.749999999999998 307.845, 15.749999999999998 307.845, 10.62 325.35, 10.62 325.35, 0 360.18, 0 360.18, 45.45000000000001 370.8, 45.45000000000001 370.8, 61.60500000000001 357.66, 61.60500000000001 357.66, 74.745 370.8, 74.745 370.8, 90.90000000000002 360.18, 90.90000000000002 360.18, 117.90000000000002 370.8, 117.90000000000002 370.8, 144.90000000000003 360.18, 144.90000000000003 360.18, 171.90000000000003 370.8, 171.90000000000003 370.8, 198.90000000000003 360.18, 198.90000000000003 360.18, 225.90000000000003 370.8, 225.90000000000003 370.8, 252.90000000000003 360.18, 252.90000000000003 360.18, 279.90000000000003 370.8, 279.90000000000003 370.8, 296.055 357.66, 296.055 357.66, 309.195 370.8, 309.195 370.8, 325.35 360.18, 325.35 360.18000000000006, 370.8 325.35, 370.8 325.35, 360.18 307.845, 360.18 307.845, 355.05 314.055, 355.05 314.055, 345.87 307.845, 345.87 307.845, 336.69 297.405, 336.69 297.405, 345.87 291.195, 345.87 291.195, 355.05 297.405, 355.05 297.405, 360.18 279.90000000000003, 360.18 279.90000000000003, 370.8 252.90000000000003, 370.8 252.90000000000003, 360.18 225.90000000000003, 360.18 225.90000000000003, 370.8 198.90000000000003, 370.8 198.90000000000003, 360.18 171.90000000000003, 360.18 171.90000000000003, 370.8 144.90000000000003, 370.8 144.90000000000003, 360.18 117.90000000000002, 360.18 117.90000000000002, 370.8 90.90000000000002, 370.8 90.90000000000002, 360.18 73.39500000000001, 360.18 73.39500000000001, 355.05 79.60500000000002, 355.05 79.60500000000002, 345.87 73.39500000000001, 345.87 73.39500000000001, 336.69 62.95500000000001, 336.69 62.95500000000001, 345.87 56.74500000000001, 345.87 56.74500000000001, 355.05 62.95500000000001, 355.05 62.95500000000001, 360.18 45.45000000000001, 360.18 45.45000000000001, 370.8 10.62, 370.80000000000007 10.62, 325.35 0, 325.35 0, 309.195 13.139999999999999, 309.195 13.139999999999999, 296.055 0, 296.055 0, 279.90000000000003 10.62, 279.90000000000003 10.62, 252.90000000000003 0, 252.90000000000003 0, 225.90000000000003 10.62, 225.90000000000003 10.62, 198.90000000000003 0, 198.90000000000003 0, 171.90000000000003 10.62, 171.90000000000003 10.62, 144.90000000000003 0, 144.90000000000003 0, 117.90000000000002 10.62, 117.90000000000002 10.62, 90.90000000000002 0, 90.90000000000002 0, 74.745 13.139999999999999, 74.745 13.139999999999999, 61.60500000000001 0, 61.60500000000001 0, 45.45000000000001 10.62, 45.45000000000001 "/> 
</g>
<!-- Left--> 
<g transform="translate(741.6, 0) " > 
<polygon style="stroke:#0000FF; fill:none; stroke-width:0.9" points="0, 10.62 45.45000000000001, 10.62 45.45000000000001, 0 61.60500000000001, 0 61.60500000000001, 13.139999999999999 74.745, 13.139999999999999 74.745, 0 90.90000000000002, 0 90.90000000000002, 10.62 117.90000000000002, 10.62 117.90000000000002, 0 144.90000000000003, 0 144.90000000000003, 10.62 171.90000000000003, 10.62 171.90000000000003, 0 198.90000000000003, 0 198.90000000000003, 10.62 225.90000000000003, 10.62 225.90000000000003, 0 252.90000000000003, 0 252.90000000000003, 10.62 279.90000000000003, 10.62 279.90000000000003, 0 296.055, 0 296.055, 13.139999999999999 309.195, 13.139999999999999 309.195, 0 325.35, 0 325.35, 10.62 370.8, 10.62 370.8, 45.45000000000001 360.18, 45.45000000000001 360.18, 62.95500000000001 355.05, 62.95500000000001 355.05, 56.74500000000001 345.87, 56.74500000000001 345.87, 62.95500000000001 336.69, 62.95500000000001 336.69, 73.39500000000001 345.87, 73.39500000000001 345.87, 79.60500000000002 355.05, 79.60500000000002 355.05, 73.39500000000001 360.18, 73.39500000000001 360.18, 90.90000000000002 370.8, 90.90000000000002 370.8, 117.90000000000002 360.18, 117.90000000000002 360.18, 144.90000000000003 370.8, 144.90000000000003 370.8, 171.90000000000003 360.18, 171.90000000000003 360.18, 198.90000000000003 370.8, 198.90000000000003 370.8, 225.90000000000003 360.18, 225.90000000000003 360.18, 252.90000000000003 370.8, 252.90000000000003 370.8, 279.90000000000003 360.18, 279.90000000000003 360.18, 297.405 355.05, 297.405 355.05, 291.195 345.87, 291.195 345.87, 297.405 336.69, 297.405 336.69, 307.845 345.87, 307.845 345.87, 314.055 355.05, 314.055 355.05, 307.845 360.18, 307.845 360.18, 325.35 370.8, 325.35 370.80000000000007, 360.18 325.35, 360.18 325.35, 370.8 309.195, 370.8 309.195, 357.66 296.055, 357.66 296.055, 370.8 279.90000000000003, 370.8 279.90000000000003, 360.18 252.90000000000003, 360.18 252.90000000000003, 370.8 225.90000000000003, 370.8 225.90000000000003, 360.18 198.90000000000003, 360.18 198.90000000000003, 370.8 171.90000000000003, 370.8 171.90000000000003, 360.18 144.90000000000003, 360.18 144.90000000000003, 370.8 117.90000000000002, 370.8 117.90000000000002, 360.18 90.90000000000002, 360.18 90.90000000000002, 370.8 74.745, 370.8 74.745, 357.66 61.60500000000001, 357.66 61.60500000000001, 370.8 45.45000000000001, 370.8 45.45000000000001, 360.18 0, 360.18000000000006 0, 325.35 10.62, 325.35 10.62, 307.845 15.749999999999998, 307.845 15.749999999999998, 314.055 24.93, 314.055 24.93, 307.845 34.11, 307.845 34.11, 297.405 24.93, 297.405 24.93, 291.195 15.749999999999998, 291.195 15.749999999999998, 297.405 10.62, 297.405 10.62, 279.90000000000003 0, 279.90000000000003 0, 252.90000000000003 10.62, 252.90000000000003 10.62, 225.90000000000003 0, 225.90000000000003 0, 198.90000000000003 10.62, 198.90000000000003 10.62, 171.90000000000003 0, 171.90000000000003 0, 144.90000000000003 10.62, 144.90000000000003 10.62, 117.90000000000002 0, 117.90000000000002 0, 90.90000000000002 10.62, 90.90000000000002 10.62, 73.39500000000001 15.749999999999998, 73.39500000000001 15.749999999999998, 79.60500000000002 24.93, 79.60500000000002 24.93, 73.39500000000001 34.11, 73.39500000000001 34.11, 62.95500000000001 24.93, 62.95500000000001 24.93, 56.74500000000001 15.749999999999998, 56.74500000000001 15.749999999999998, 62.95500000000001 10.62, 62.95500000000001 10.62, 45.45000000000001 0, 45.45000000000001 "/> 
</g>
<!-- Right--> 
<g transform="translate(741.6, 370.8) " > 
<polygon style="stroke:#0000FF; fill:none; stroke-width:0.9" points="0, 10.62 45.45000000000001, 10.62 45.45000000000001, 0 61.60500000000001, 0 61.60500000000001, 13.139999999999999 74.745, 13.139999999999999 74.745, 0 90.90000000000002, 0 90.90000000000002, 10.62 117.90000000000002, 10.62 117.90000000000002, 0 144.90000000000003, 0 144.90000000000003, 10.62 171.90000000000003, 10.62 171.90000000000003, 0 198.90000000000003, 0 198.90000000000003, 10.62 225.90000000000003, 10.62 225.90000000000003, 0 252.90000000000003, 0 252.90000000000003, 10.62 279.90000000000003, 10.62 279.90000000000003, 0 296.055, 0 296.055, 13.139999999999999 309.195, 13.139999999999999 309.195, 0 325.35, 0 325.35, 10.62 370.8, 10.62 370.8, 45.45000000000001 360.18, 45.45000000000001 360.18, 62.95500000000001 355.05, 62.95500000000001 355.05, 56.74500000000001 345.87, 56.74500000000001 345.87, 62.95500000000001 336.69, 62.95500000000001 336.69, 73.39500000000001 345.87, 73.39500000000001 345.87, 79.60500000000002 355.05, 79.60500000000002 355.05, 73.39500000000001 360.18, 73.39500000000001 360.18, 90.90000000000002 370.8, 90.90000000000002 370.8, 117.90000000000002 360.18, 117.90000000000002 360.18, 144.90000000000003 370.8, 144.90000000000003 370.8, 171.90000000000003 360.18, 171.90000000000003 360.18, 198.90000000000003 370.8, 198.90000000000003 370.8, 225.90000000000003 360.18, 225.90000000000003 360.18, 252.90000000000003 370.8, 252.90000000000003 370.8, 279.90000000000003 360.18, 279.90000000000003 360.18, 297.405 355.05, 297.405 355.05, 291.195 345.87, 291.195 345.87, 297.405 336.69, 297.405 336.69, 307.845 345.87, 307.845 345.87, 314.055 355.05, 314.055 355.05, 307.845 360.18, 307.845 360.18, 325.35 370.8, 325.35 370.80000000000007, 360.18 325.35, 360.18 325.35, 370.8 309.195, 370.8 309.195, 357.66 296.055, 357.66 296.055, 370.8 279.90000000000003, 370.8 279.90000000000003, 360.18 252.90000000000003, 360.18 252.90000000000003, 370.8 225.90000000000003, 370.8 225.90000000000003, 360.18 198.90000000000003, 360.18 198.90000000000003, 370.8 171.90000000000003, 370.8 171.90000000000003, 360.18 144.90000000000003, 360.18 144.90000000000003, 370.8 117.90000000000002, 370.8 117.90000000000002, 360.18 90.90000000000002, 360.18 90.90000000000002, 370.8 74.745, 370.8 74.745, 357.66 61.60500000000001, 357.66 61.60500000000001, 370.8 45.45000000000001, 370.8 45.45000000000001, 360.18 0, 360.18000000000006 0, 325.35 10.62, 325.35 10.62, 307.845 15.749999999999998, 307.845 15.749999999999998, 314.055 24.93, 314.055 24.93, 307.845 34.11, 307.845 34.11, 297.405 24.93, 297.405 24.93, 291.195 15.749999999999998, 291.195 15.749999999999998, 297.405 10.62, 297.405 10.62, 279.90000000000003 0, 279.90000000000003 0, 252.90000000000003 10.62, 252.90000000000003 10.62, 225.90000000000003 0, 225.90000000000003 0, 198.90000000000003 10.62, 198.90000000000003 10.62, 171.90000000000003 0, 171.90000000000003 0, 144.90000000000003 10.62, 144.90000000000003 10.62, 117.90000000000002 0, 117.90000000000002 0, 90.90000000000002 10.62, 90.90000000000002 10.62, 73.39500000000001 15.749999999999998, 73.39500000000001 15.749999999999998, 79.60500000000002 24.93, 79.60500000000002 24.93, 73.39500000000001 34.11, 73.39500000000001 34.11, 62.95500000000001 24.93, 62.95500000000001 24.93, 56.74500000000001 15.749999999999998, 56.74500000000001 15.749999999999998, 62.95500000000001 10.62, 62.95500000000001 10.62, 45.45000000000001 0, 45.45000000000001 "/> 
</g>
<!-- Top--> 
<g transform="translate(0, 370.8) " > 
<polygon style="stroke:#0000FF; fill:none; stroke-width:0.9" points="0, 10.62 45.45000000000001, 10.62 45.45000000000001, 0 61.60500000000001, 0 61.60500000000001, 13.139999999999999 74.745, 13.139999999999999 74.745, 0 90.90000000000002, 0 90.90000000000002, 10.62 117.90000000000002, 10.62 117.90000000000002, 0 144.90000000000003, 0 144.90000000000003, 10.62 171.90000000000003, 10.62 171.90000000000003, 0 198.90000000000003, 0 198.90000000000003, 10.62 225.90000000000003, 10.62 225.90000000000003, 0 252.90000000000003, 0 252.90000000000003, 10.62 279.90000000000003, 10.62 279.90000000000003, 0 296.055, 0 296.055, 13.139999999999999 309.195, 13.139999999999999 309.195, 0 325.35, 0 325.35, 10.62 370.8, 10.62 370.8, 45.45000000000001 360.18, 45.45000000000001 360.18, 62.95500000000001 355.05, 62.95500000000001 355.05, 56.74500000000001 345.87, 56.74500000000001 345.87, 62.95500000000001 336.69, 62.95500000000001 336.69, 73.39500000000001 345.87, 73.39500000000001 345.87, 79.60500000000002 355.05, 79.60500000000002 355.05, 73.39500000000001 360.18, 73.39500000000001 360.18, 90.90000000000002 370.8, 90.90000000000002 370.8, 117.90000000000002 360.18, 117.90000000000002 360.18, 144.90000000000003 370.8, 144.90000000000003 370.8, 171.90000000000003 360.18, 171.90000000000003 360.18, 198.90000000000003 370.8, 198.90000000000003 370.8, 225.90000000000003 360.18, 225.90000000000003 360.18, 252.90000000000003 370.8, 252.90000000000003 370.8, 279.90000000000003 360.18, 279.90000000000003 360.18, 297.405 355.05, 297.405 355.05, 291.195 345.87, 291.195 345.87, 297.405 336.69, 297.405 336.69, 307.845 345.87, 307.845 345.87, 314.055 355.05, 314.055 355.05, 307.845 360.18, 307.845 360.18, 325.35 370.8, 325.35 370.80000000000007, 360.18 325.35, 360.18 325.35, 370.8 309.195, 370.8 309.195, 357.66 296.055, 357.66 296.055, 370.8 279.90000000000003, 370.8 279.90000000000003, 360.18 252.90000000000003, 360.18 252.90000000000003, 370.8 225.90000000000003, 370.8 225.90000000000003, 360.18 198.90000000000003, 360.18 198.90000000000003, 370.8 171.90000000000003, 370.8 171.90000000000003, 360.18 144.90000000000003, 360.18 144.90000000000003, 370.8 117.90000000000002, 370.8 117.90000000000002, 360.18 90.90000000000002, 360.18 90.90000000000002, 370.8 74.745, 370.8 74.745, 357.66 61.60500000000001, 357.66 61.60500000000001, 370.8 45.45000000000001, 370.8 45.45000000000001, 360.18 0, 360.18000000000006 0, 325.35 10.62, 325.35 10.62, 307.845 15.749999999999998, 307.845 15.749999999999998, 314.055 24.93, 314.055 24.93, 307.845 34.11, 307.845 34.11, 297.405 24.93, 297.405 24.93, 291.195 15.749999999999998, 291.195 15.749999999999998, 297.405 10.62, 297.405 10.62, 279.90000000000003 0, 279.90000000000003 0, 252.90000000000003 10.62, 252.90000000000003 10.62, 225.90000000000003 0, 225.90000000000003 0, 198.90000000000003 10.62, 198.90000000000003 10.62, 171.90000000000003 0, 171.90000000000003 0, 144.90000000000003 10.62, 144.90000000000003 10.62, 117.90000000000002 0, 117.90000000000002 0, 90.90000000000002 10.62, 90.90000000000002 10.62, 73.39500000000001 15.749999999999998, 73.39500000000001 15.749999999999998, 79.60500000000002 24.93, 79.60500000000002 24.93, 73.39500000000001 34.11, 73.39500000000001 34.11, 62.95500000000001 24.93, 62.95500000000001 24.93, 56.74500000000001 15.749999999999998, 56.74500000000001 15.749999999999998, 62.95500000000001 10.62, 62.95500000000001 10.62, 45.45000000000001 0, 45.45000000000001 "/> 
</g>
<!-- Bottom--> 
<g transform="translate(370.8, 370.8) " > 
<polygon style="stroke:#0000FF; fill:none; stroke-width:0.9" points="0, 10.62 45.45000000000001, 10.62 45.45000000000001, 0 61.60500000000001, 0 61.60500000000001, 13.139999999999999 74.745, 13.139999999999999 74.745, 0 90.90000000000002, 0 90.90000000000002, 10.62 117.90000000000002, 10.62 117.90000000000002, 0 144.90000000000003, 0 144.90000000000003, 10.62 171.90000000000003, 10.62 171.90000000000003, 0 198.90000000000003, 0 198.90000000000003, 10.62 225.90000000000003, 10.62 225.90000000000003, 0 252.90000000000003, 0 252.90000000000003, 10.62 279.90000000000003, 10.62 279.90000000000003, 0 296.055, 0 296.055, 13.139999999999999 309.195, 13.139999999999999 309.195, 0 325.35, 0 325.35, 10.62 370.8, 10.62 370.8, 45.45000000000001 360.18, 45.45000000000001 360.18, 62.95500000000001 355.05, 62.95500000000001 355.05, 56.74500000000001 345.87, 56.74500000000001 345.87, 62.95500000000001 336.69, 62.95500000000001 336.69, 73.39500000000001 345.87, 73.39500000000001 345.87, 79.60500000000002 355.05, 79.60500000000002 355.05, 73.39500000000001 360.18, 73.39500000000001 360.18, 90.90000000000002 370.8, 90.90000000000002 370.8, 117.90000000000002 360.18, 117.90000000000002 360.18, 144.90000000000003 370.8, 144.90000000000003 370.8, 171.90000000000003 360.18, 171.90000000000003 360.18, 198.90000000000003 370.8, 198.90000000000003 370.8, 225.90000000000003 360.18, 225.90000000000003 360.18, 252.90000000000003 370.8, 252.90000000000003 370.8, 279.90000000000003 360.18, 279.90000000000003 360.18, 297.405 355.05, 297.405 355.05, 291.195 345.87, 291.195 345.87, 297.405 336.69, 297.405 336.69, 307.845 345.87, 307.845 345.87, 314.055 355.05, 314.055 355.05, 307.845 360.18, 307.845 360.18, 325.35 370.8, 325.35 370.80000000000007, 360.18 325.35, 360.18 325.35, 370.8 309.195, 370.8 309.195, 357.66 296.055, 357.66 296.055, 370.8 279.90000000000003, 370.8 279.90000000000003, 360.18 252.90000000000003, 360.18 252.90000000000003, 370.8 225.90000000000003, 370.8 225.90000000000003, 360.18 198.90000000000003, 360.18 198.90000000000003, 370.8 171.90000000000003, 370.8 171.90000000000003, 360.18 144.90000000000003, 360.18 144.90000000000003, 370.8 117.90000000000002, 370.8 117.90000000000002, 360.18 90.90000000000002, 360.18 90.90000000000002, 370.8 74.745, 370.8 74.745, 357.66 61.60500000000001, 357.66 61.60500000000001, 370.8 45.45000000000001, 370.8 45.45000000000001, 360.18 0, 360.18000000000006 0, 325.35 10.62, 325.35 10.62, 307.845 15.749999999999998, 307.845 15.749999999999998, 314.055 24.93, 314.055 24.93, 307.845 34.11, 307.845 34.11, 297.405 24.93, 297.405 24.93, 291.195 15.749999999999998, 291.195 15.749999999999998, 297.405 10.62, 297.405 10.62, 279.90000000000003 0, 279.90000000000003 0, 252.90000000000003 10.62, 252.90000000000003 10.62, 225.90000000000003 0, 225.90000000000003 0, 198.90000000000003 10.62, 198.90000000000003 10.62, 171.90000000000003 0, 171.90000000000003 0, 144.90000000000003 10.62, 144.90000000000003 10.62, 117.90000000000002 0, 117.90000000000002 0, 90.90000000000002 10.62, 90.90000000000002 10.62, 73.39500000000001 15.749999999999998, 73.39500000000001 15.749999999999998, 79.60500000000002 24.93, 79.60500000000002 24.93, 73.39500000000001 34.11, 73.39500000000001 34.11, 62.95500000000001 24.93, 62.95500000000001 24.93, 56.74500000000001 15.749999999999998, 56.74500000000001 15.749999999999998, 62.95500000000001 10.62, 62.95500000000001 10.62, 45.45000000000001 0, 45.45000000000001 "/> 
</g></svg>