<svg xmlns="http://www.w3.org/2000/svg" version="1.1" width="13.207999999999998in" height="8.972in" viewBox = " 0 0 1188.7199999999998 807.4799999999999" >
<!-- Front--> 
<g transform="translate(22.5, 22.5) " > 
<polygon style="stroke:#000000; fill:none; stroke-width:0.9" points="10.62, 0 34.55999999999999, 0 34.55999999999999, 10.62 46.61999999999998, 10.62 46.61999999999998, 15.749999999999998 40.40999999999998, 15.749999999999998 40.40999999999998, 24.93 46.61999999999998, 24.93 46.61999999999998, 34.11 57.05999999999998, 34.11 57.05999999999998, 24.93 63.26999999999998, 24.93 63.26999999999998, 15.749999999999998 57.05999999999998, 15.749999999999998 57.05999999999998, 10.62 69.11999999999998, 10.62 69.11999999999998, 0 96.11999999999998, 0 96.11999999999998, 10.62 123.11999999999998, 10.62 123.11999999999998, 0 150.11999999999998, 0 150.11999999999998, 10.62 177.11999999999998, 10.62 177.11999999999998, 0 204.11999999999998, 0 204.11999999999998, 10.62 231.11999999999998, 10.62 231.11999999999998, 0 258.12, 0 258.12, 10.62 285.12, 10.62 285.12, 0 312.12, 0 312.12, 10.62 324.17999999999995, 10.62 324.17999999999995, 15.749999999999998 317.96999999999997, 15.749999999999998 317.96999999999997, 24.93 324.17999999999995, 24.93 324.17999999999995, 34.11 334.62, 34.11 334.62, 24.93 340.83, 24.93 340.83, 15.749999999999998 334.62, 15.749999999999998 334.62, 10.62 346.67999999999995, 10.62 346.67999999999995, 0 370.61999999999995, 0 370.61999999999995, 34.55999999999999 381.23999999999995, 34.55999999999999 381.23999999999995, 45.26999999999998 368.09999999999997, 45.26999999999998 368.09999999999997, 58.40999999999998 381.23999999999995, 58.40999999999998 381.23999999999995, 69.11999999999998 370.61999999999995, 69.11999999999998 370.61999999999995, 96.11999999999998 381.23999999999995, 96.11999999999998 381.23999999999995, 123.11999999999998 370.61999999999995, 123.11999999999998 370.61999999999995, 150.11999999999998 381.23999999999995, 150.11999999999998 381.23999999999995, 177.11999999999998 370.61999999999995, 177.11999999999998 370.61999999999995, 204.11999999999998 381.23999999999995, 204.11999999999998 381.23999999999995, 231.11999999999998 370.61999999999995, 231.11999999999998 370.61999999999995, 258.12 381.23999999999995, 258.12 381.23999999999995, 285.12 370.61999999999995, 285.12 370.61999999999995, 312.12 381.23999999999995, 312.12 381.23999999999995, 322.83 368.09999999999997, 322.83 368.09999999999997, 335.96999999999997 381.23999999999995, 335.96999999999997 381.23999999999995, 346.67999999999995 370.61999999999995, 346.67999999999995 370.61999999999995, 381.23999999999995 346.67999999999995, 381.23999999999995 346.67999999999995, 370.61999999999995 334.62, 370.61999999999995 334.62, 365.48999999999995 340.83, 365.48999999999995 340.83, 356.30999999999995 334.62, 356.30999999999995 334.62, 347.12999999999994 324.17999999999995, 347.12999999999994 324.17999999999995, 356.30999999999995 317.96999999999997, 356.30999999999995 317.96999999999997, 365.48999999999995 324.17999999999995, 365.48999999999995 324.17999999999995, 370.61999999999995 312.12, 370.61999999999995 312.12, 381.23999999999995 285.12, 381.23999999999995 285.12, 370.61999999999995 258.12, 370.61999999999995 258.12, 381.23999999999995 231.11999999999998, 381.23999999999995 231.11999999999998, 370.61999999999995 204.11999999999998, 370.61999999999995 204.11999999999998, 381.23999999999995 177.11999999999998, 381.23999999999995 177.11999999999998, 370.61999999999995 150.11999999999998, 370.61999999999995 150.11999999999998, 381.23999999999995 123.11999999999998, 381.23999999999995 123.11999999999998, 370.61999999999995 96.11999999999998, 370.61999999999995 96.11999999999998, 381.23999999999995 69.11999999999998, 381.23999999999995 69.11999999999998, 370.61999999999995 57.05999999999998, 370.61999999999995 57.05999999999998, 365.48999999999995 63.26999999999998, 365.48999999999995 63.26999999999998, 356.30999999999995 57.05999999999998, 356.30999999999995 57.05999999999998, 347.12999999999994 46.61999999999998, 347.12999999999994 46.61999999999998, 356.30999999999995 40.40999999999998, 356.30999999999995 40.40999999999998, 365.48999999999995 46.61999999999998, 365.48999999999995 46.61999999999998, 370.61999999999995 34.55999999999999, 370.61999999999995 34.55999999999999, 381.23999999999995 10.62, 381.23999999999995 10.62, 346.67999999999995 0, 346.67999999999995 0, 335.96999999999997 13.139999999999999, 335.96999999999997 13.139999999999999, 322.83 0, 322.83 0, 312.12 10.62, 312.12 10.62, 285.12 0, 285.12 0, 258.12 10.62, 258.12 10.62, 231.11999999999998 0, 231.11999999999998 0, 204.11999999999998 10.62, 204.11999999999998 10.62, 177.11999999999998 0, 177.11999999999998 0, 150.11999999999998 10.62, 150.11999999999998 10.62, 123.11999999999998 0, 123.11999999999998 0, 96.11999999999998 10.62, 96.11999999999998 10.62, 69.11999999999998 0, 69.11999999999998 0, 58.40999999999998 13.139999999999999, 58.40999999999998 13.139999999999999, 45.26999999999998 0, 45.26999999999998 0, 34.55999999999999 10.62, 34.55999999999999 "/> 
</g>
<!-- Back--> 
<g transform="translate(403.73999999999995, 22.5) " > 
<polygon style="stroke:#000000; fill:none; stroke-width:0.9" points="10.62, 0 34.55999999999999, 0 34.55999999999999, 10.62 46.61999999999998, 10.62 46.61999999999998, 15.749999999999998 40.40999999999998, 15.749999999999998 40.40999999999998, 24.93 46.61999999999998, 24.93 46.61999999999998, 34.11 57.05999999999998, 34.11 57.05999999999998, 24.93 63.26999999999998, 24.93 63.26999999999998, 15.749999999999998 57.05999999999998, 15.749999999999998 57.05999999999998, 10.62 69.11999999999998, 10.62 69.11999999999998, 0 96.11999999999998, 0 96.11999999999998, 10.62 123.11999999999998, 10.62 123.11999999999998, 0 150.11999999999998, 0 150.11999999999998, 10.62 177.11999999999998, 10.62 177.11999999999998, 0 204.11999999999998, 0 204.11999999999998, 10.62 231.11999999999998, 10.62 231.11999999999998, 0 258.12, 0 258.12, 10.62 285.12, 10.62 285.12, 0 312.12, 0 312.12, 10.62 324.17999999999995, 10.62 324.17999999999995, 15.749999999999998 317.96999999999997, 15.749999999999998 317.96999999999997, 24.93 324.17999999999995, 24.93 324.17999999999995, 34.11 334.62, 34.11 334.62, 24.93 340.83, 24.93 340.83, 15.749999999999998 334.62, 15.749999999999998 334.62, 10.62 346.67999999999995, 10.62 346.67999999999995, 0 370.61999999999995, 0 370.61999999999995, 34.55999999999999 381.23999999999995, 34.55999999999999 381.23999999999995, 45.26999999999998 368.09999999999997, 45.26999999999998 368.09999999999997, 58.40999999999998 381.23999999999995, 58.40999999999998 381.23999999999995, 69.11999999999998 370.61999999999995, 69.11999999999998 370.61999999999995, 96.11999999999998 381.23999999999995, 96.11999999999998 381.23999999999995, 123.11999999999998 370.61999999999995, 123.11999999999998 370.61999999999995, 150.11999999999998 381.23999999999995, 150.11999999999998 381.23999999999995, 177.11999999999998 370.61999999999995, 177.11999999999998 370.61999999999995, 204.11999999999998 381.23999999999995, 204.11999999999998 381.23999999999995, 231.11999999999998 370.61999999999995, 231.11999999999998 370.61999999999995, 258.12 381.23999999999995, 258.12 381.23999999999995, 285.12 370.61999999999995, 285.12 370.61999999999995, 312.12 381.23999999999995, 312.12 381.23999999999995, 322.83 368.09999999999997, 322.83 368.09999999999997, 335.96999999999997 381.23999999999995, 335.96999999999997 381.23999999999995, 346.67999999999995 370.61999999999995, 346.67999999999995 370.61999999999995, 381.23999999999995 346.67999999999995, 381.23999999999995 346.67999999999995, 370.61999999999995 334.62, 370.61999999999995 334.62, 365.48999999999995 340.83, 365.48999999999995 340.83, 356.30999999999995 334.62, 356.30999999999995 334.62, 347.12999999999994 324.17999999999995, 347.12999999999994 324.17999999999995, 356.30999999999995 317.96999999999997, 356.30999999999995 317.96999999999997, 365.48999999999995 324.17999999999995, 365.48999999999995 324.17999999999995, 370.61999999999995 312.12, 370.61999999999995 312.12, 381.23999999999995 285.12, 381.23999999999995 285.12, 370.61999999999995 258.12, 370.61999999999995 258.12, 381.23999999999995 231.11999999999998, 381.23999999999995 231.11999999999998, 370.61999999999995 204.11999999999998, 370.61999999999995 204.11999999999998, 381.23999999999995 177.11999999999998, 381.23999999999995 177.11999999999998, 370.61999999999995 150.11999999999998, 370.61999999999995 150.11999999999998, 381.23999999999995 123.11999999999998, 381.23999999999995 123.11999999999998, 370.61999999999995 96.11999999999998, 370.61999999999995 96.11999999999998, 381.23999999999995 69.11999999999998, 381.23999999999995 69.11999999999998, 370.61999999999995 57.05999999999998, 370.61999999999995 57.05999999999998, 365.48999999999995 63.26999999999998, 365.48999999999995 63.26999999999998, 356.30999999999995 57.05999999999998, 356.30999999999995 57.05999999999998, 347.12999999999994 46.61999999999998, 347.12999999999994 46.61999999999998, 356.30999999999995 40.40999999999998, 356.30999999999995 40.40999999999998, 365.48999999999995 46.61999999999998, 365.48999999999995 46.61999999999998, 370.61999999999995 34.55999999999999, 370.61999999999995 34.55999999999999, 381.23999999999995 10.62, 381.23999999999995 10.62, 346.67999999999995 0, 346.67999999999995 0, 335.96999999999997 13.139999999999999, 335.96999999999997 13.139999999999999, 322.83 0, 322.83 0, 312.12 10.62, 312.12 10.62, 285.12 0, 285.12 0, 258.12 10.62, 258.12 10.62, 231.11999999999998 0, 231.11999999999998 0, 204.11999999999998 10.62, 204.11999999999998 10.62, 177.11999999999998 0, 177.11999999999998 0, 150.11999999999998 10.62, 150.11999999999998 10.62, 123.11999999999998 0, 123.11999999999998 0, 96.11999999999998 10.62, 96.11999999999998 10.62, 69.11999999999998 0, 69.11999999999998 0, 58.40999999999998 13.139999999999999, 58.40999999999998 13.139999999999999, 45.26999999999998 0, 45.26999999999998 0, 34.55999999999999 10.62, 34.55999999999999 "/> 
</g>
<!-- Left--> 
<g transform="translate(784.9799999999999, 22.5) " > 
<polygon style="stroke:#000000; fill:none; stroke-width:0.9" points="0, 10.62 34.55999999999999, 10.62 34.55999999999999, 0 45.26999999999998, 0 45.26999999999998, 13.139999999999999 58.40999999999998, 13.139999999999999 58.40999999999998, 0 69.11999999999998, 0 69.11999999999998, 10.62 96.11999999999998, 10.62 96.11999999999998, 0 123.11999999999998, 0 123.11999999999998, 10.62 150.11999999999998, 10.62 150.11999999999998, 0 177.11999999999998, 0 177.11999999999998, 10.62 204.11999999999998, 10.62 204.11999999999998, 0 231.11999999999998, 0 231.11999999999998, 10.62 258.12, 10.62 258.12, 0 285.12, 0 285.12, 10.62 312.12, 10.62 312.12, 0 322.83, 0 322.83, 13.139999999999999 335.96999999999997, 13.139999999999999 335.96999999999997, 0 346.67999999999995, 0 346.67999999999995, 10.62 381.23999999999995, 10.62 381.23999999999995, 34.55999999999999 370.61999999999995, 34.55999999999999 370.61999999999995, 46.61999999999998 365.48999999999995, 46.61999999999998 365.48999999999995, 40.40999999999998 356.30999999999995, 40.40999999999998 356.30999999999995, 46.61999999999998 347.12999999999994, 46.61999999999998 347.12999999999994, 57.05999999999998 356.30999999999995, 57.05999999999998 356.30999999999995, 63.26999999999998 365.48999999999995, 63.26999999999998 365.48999999999995, 57.05999999999998 370.61999999999995, 57.05999999999998 370.61999999999995, 69.11999999999998 381.23999999999995, 69.11999999999998 381.23999999999995, 96.11999999999998 370.61999999999995, 96.11999999999998 370.61999999999995, 123.11999999999998 381.23999999999995, 123.11999999999998 381.23999999999995, 150.11999999999998 370.61999999999995, 150.11999999999998 370.61999999999995, 177.11999999999998 381.23999999999995, 177.11999999999998 381.23999999999995, 204.11999999999998 370.61999999999995, 204.11999999999998 370.61999999999995, 231.11999999999998 381.23999999999995, 231.11999999999998 381.23999999999995, 258.12 370.61999999999995, 258.12 370.61999999999995, 285.12 381.23999999999995, 285.12 381.23999999999995, 312.12 370.61999999999995, 312.12 370.61999999999995, 324.17999999999995 365.48999999999995, 324.17999999999995 365.48999999999995, 317.96999999999997 356.30999999999995, 317.96999999999997 356.30999999999995, 324.17999999999995 347.12999999999994, 324.17999999999995 347.12999999999994, 334.62 356.30999999999995, 334.62 356.30999999999995, 340.83 365.48999999999995, 340.83 365.48999999999995, 334.62 370.61999999999995, 334.62 370.61999999999995, 346.67999999999995 381.23999999999995, 346.67999999999995 381.23999999999995, 370.61999999999995 346.67999999999995, 370.61999999999995 346.67999999999995, 381.23999999999995 335.96999999999997, 381.23999999999995 335.96999999999997, 368.09999999999997 322.83, 368.09999999999997 322.83, 381.23999999999995 312.12, 381.23999999999995 312.12, 370.61999999999995 285.12, 370.61999999999995 285.12, 381.23999999999995 258.12, 381.23999999999995 258.12, 370.61999999999995 231.11999999999998, 370.61999999999995 231.11999999999998, 381.23999999999995 204.11999999999998, 381.23999999999995 204.11999999999998, 370.61999999999995 177.11999999999998, 370.61999999999995 177.11999999999998, 381.23999999999995 150.11999999999998, 381.23999999999995 150.11999999999998, 370.61999999999995 123.11999999999998, 370.61999999999995 123.11999999999998, 381.23999999999995 96.11999999999998, 381.23999999999995 96.11999999999998, 370.61999999999995 69.11999999999998, 370.61999999999995 69.11999999999998, 381.23999999999995 58.40999999999998, 381.23999999999995 58.40999999999998, 368.09999999999997 45.26999999999998, 368.09999999999997 45.26999999999998, 381.23999999999995 34.55999999999999, 381.23999999999995 34.55999999999999, 370.61999999999995 0, 370.61999999999995 0, 346.67999999999995 10.62, 346.67999999999995 10.62, 334.62 15.749999999999998, 334.62 15.749999999999998, 340.83 24.93, 340.83 24.93, 334.62 34.11, 334.62 34.11, 324.17999999999995 24.93, 324.17999999999995 24.93, 317.96999999999997 15.749999999999998, 317.96999999999997 15.749999999999998, 324.17999999999995 10.62, 324.17999999999995 10.62, 312.12 0, 312.12 0, 285.12 10.62, 285.12 10.62, 258.12 0, 258.12 0, 231.11999999999998 10.62, 231.11999999999998 10.62, 204.11999999999998 0, 204.11999999999998 0, 177.11999999999998 10.62, 177.11999999999998 10.62, 150.11999999999998 0, 150.11999999999998 0, 123.11999999999998 10.62, 123.11999999999998 10.62, 96.11999999999998 0, 96.11999999999998 0, 69.11999999999998 10.62, 69.11999999999998 10.62, 57.05999999999998 15.749999999999998, 57.05999999999998 15.749999999999998, 63.26999999999998 24.93, 63.26999999999998 24.93, 57.05999999999998 34.11, 57.05999999999998 34.11, 46.61999999999998 24.93, 46.61999999999998 24.93, 40.40999999999998 15.749999999999998, 40.40999999999998 15.749999999999998, 46.61999999999998 10.62, 46.61999999999998 10.62, 34.55999999999999 0, 34.55999999999999 "/> 
</g>
<!-- Right--> 
<g transform="translate(784.9799999999999, 403.73999999999995) " > 
<polygon style="stroke:#000000; fill:none; stroke-width:0.9" points="0, 10.62 34.55999999999999, 10.62 34.55999999999999, 0 45.26999999999998, 0 45.26999999999998, 13.139999999999999 58.40999999999998, 13.139999999999999 58.40999999999998, 0 69.11999999999998, 0 69.11999999999998, 10.62 96.11999999999998, 10.62 96.11999999999998, 0 123.11999999999998, 0 123.11999999999998, 10.62 150.11999999999998, 10.62 150.11999999999998, 0 177.11999999999998, 0 177.11999999999998, 10.62 204.11999999999998, 10.62 204.11999999999998, 0 231.11999999999998, 0 231.11999999999998, 10.62 258.12, 10.62 258.12, 0 285.12, 0 285.12, 10.62 312.12, 10.62 312.12, 0 322.83, 0 322.83, 13.139999999999999 335.96999999999997, 13.139999999999999 335.96999999999997, 0 346.67999999999995, 0 346.67999999999995, 10.62 381.23999999999995, 10.62 381.23999999999995, 34.55999999999999 370.61999999999995, 34.55999999999999 370.61999999999995, 46.61999999999998 365.48999999999995, 46.61999999999998 365.48999999999995, 40.40999999999998 356.30999999999995, 40.40999999999998 356.30999999999995, 46.61999999999998 347.12999999999994, 46.61999999999998 347.12999999999994, 57.05999999999998 356.30999999999995, 57.05999999999998 356.30999999999995, 63.26999999999998 365.48999999999995, 63.26999999999998 365.48999999999995, 57.05999999999998 370.61999999999995, 57.05999999999998 370.61999999999995, 69.11999999999998 381.23999999999995, 69.11999999999998 381.23999999999995, 96.11999999999998 370.61999999999995, 96.11999999999998 370.61999999999995, 123.11999999999998 381.23999999999995, 123.11999999999998 381.23999999999995, 150.11999999999998 370.61999999999995, 150.11999999999998 370.61999999999995, 177.11999999999998 381.23999999999995, 177.11999999999998 381.23999999999995, 204.11999999999998 370.61999999999995, 204.11999999999998 370.61999999999995, 231.11999999999998 381.23999999999995, 231.11999999999998 381.23999999999995, 258.12 370.61999999999995, 258.12 370.61999999999995, 285.12 381.23999999999995, 285.12 381.23999999999995, 312.12 370.61999999999995, 312.12 370.61999999999995, 324.17999999999995 365.48999999999995, 324.17999999999995 365.48999999999995, 317.96999999999997 356.30999999999995, 317.96999999999997 356.30999999999995, 324.17999999999995 347.12999999999994, 324.17999999999995 347.12999999999994, 334.62 356.30999999999995, 334.62 356.30999999999995, 340.83 365.48999999999995, 340.83 365.48999999999995, 334.62 370.61999999999995, 334.62 370.61999999999995, 346.67999999999995 381.23999999999995, 346.67999999999995 381.23999999999995, 370.61999999999995 346.67999999999995, 370.61999999999995 346.67999999999995, 381.23999999999995 335.96999999999997, 381.23999999999995 335.96999999999997, 368.09999999999997 322.83, 368.09999999999997 322.83, 381.23999999999995 312.12, 381.23999999999995 312.12, 370.61999999999995 285.12, 370.61999999999995 285.12, 381.23999999999995 258.12, 381.23999999999995 258.12, 370.61999999999995 231.11999999999998, 370.61999999999995 231.11999999999998, 381.23999999999995 204.11999999999998, 381.23999999999995 204.11999999999998, 370.61999999999995 177.11999999999998, 370.61999999999995 177.11999999999998, 381.23999999999995 150.11999999999998, 381.23999999999995 150.11999999999998, 370.61999999999995 123.11999999999998, 370.61999999999995 123.11999999999998, 381.23999999999995 96.11999999999998, 381.23999999999995 96.11999999999998, 370.61999999999995 69.11999999999998, 370.61999999999995 69.11999999999998, 381.23999999999995 58.40999999999998, 381.23999999999995 58.40999999999998, 368.09999999999997 45.26999999999998, 368.09999999999997 45.26999999999998, 381.23999999999995 34.55999999999999, 381.23999999999995 34.55999999999999, 370.61999999999995 0, 370.61999999999995 0, 346.67999999999995 10.62, 346.67999999999995 10.62, 334.62 15.749999999999998, 334.62 15.749999999999998, 340.83 24.93, 340.83 24.93, 334.62 34.11, 334.62 34.11, 324.17999999999995 24.93, 324.17999999999995 24.93, 317.96999999999997 15.749999999999998, 317.96999999999997 15.749999999999998, 324.17999999999995 10.62, 324.17999999999995 10.62, 312.12 0, 312.12 0, 285.12 10.62, 285.12 10.62, 258.12 0, 258.12 0, 231.11999999999998 10.62, 231.11999999999998 10.62, 204.11999999999998 0, 204.11999999999998 0, 177.11999999999998 10.62, 177.11999999999998 10.62, 150.11999999999998 0, 150.11999999999998 0, 123.11999999999998 10.62, 123.11999999999998 10.62, 96.11999999999998 0, 96.11999999999998 0, 69.11999999999998 10.62, 69.11999999999998 10.62, 57.05999999999998 15.749999999999998, 57.05999999999998 15.749999999999998, 63.26999999999998 24.93, 63.26999999999998 24.93, 57.05999999999998 34.11, 57.05999999999998 34.11, 46.61999999999998 24.93, 46.61999999999998 24.93, 40.40999999999998 15.749999999999998, 40.40999999999998 15.749999999999998, 46.61999999999998 10.62, 46.61999999999998 10.62, 34.55999999999999 0, 34.55999999999999 "/> 
</g>
<!-- Top--> 
<g transform="translate(22.5, 403.73999999999995) " > 
<polygon style="stroke:#000000; fill:none; stroke-width:0.9" points="0, 10.62 34.55999999999999, 10.62 34.55999999999999, 0 45.26999999999998, 0 45.26999999999998, 13.139999999999999 58.40999999999998, 13.139999999999999 58.40999999999998, 0 69.11999999999998, 0 69.11999999999998, 10.62 96.11999999999998, 10.62 96.11999999999998, 0 123.11999999999998, 0 123.11999999999998, 10.62 150.11999999999998, 10.62 150.11999999999998, 0 177.11999999999998, 0 177.11999999999998, 10.62 204.11999999999998, 10.62 204.11999999999998, 0 231.11999999999998, 0 231.11999999999998, 10.62 258.12, 10.62 258.12, 0 285.12, 0 285.12, 10.62 312.12, 10.62 312.12, 0 322.83, 0 322.83, 13.139999999999999 335.96999999999997, 13.139999999999999 335.96999999999997, 0 346.67999999999995, 0 346.67999999999995, 10.62 381.23999999999995, 10.62 381.23999999999995, 34.55999999999999 370.61999999999995, 34.55999999999999 370.61999999999995, 46.61999999999998 365.48999999999995, 46.61999999999998 365.48999999999995, 40.40999999999998 356.30999999999995, 40.40999999999998 356.30999999999995, 46.61999999999998 347.12999999999994, 46.61999999999998 347.12999999999994, 57.05999999999998 356.30999999999995, 57.05999999999998 356.30999999999995, 63.26999999999998 365.48999999999995, 63.26999999999998 365.48999999999995, 57.05999999999998 370.61999999999995, 57.05999999999998 370.61999999999995, 69.11999999999998 381.23999999999995, 69.11999999999998 381.23999999999995, 96.11999999999998 370.61999999999995, 96.11999999999998 370.61999999999995, 123.11999999999998 381.23999999999995, 123.11999999999998 381.23999999999995, 150.11999999999998 370.61999999999995, 150.11999999999998 370.61999999999995, 177.11999999999998 381.23999999999995, 177.11999999999998 381.23999999999995, 204.11999999999998 370.61999999999995, 204.11999999999998 370.61999999999995, 231.11999999999998 381.23999999999995, 231.11999999999998 381.23999999999995, 258.12 370.61999999999995, 258.12 370.61999999999995, 285.12 381.23999999999995, 285.12 381.23999999999995, 312.12 370.61999999999995, 312.12 370.61999999999995, 324.17999999999995 365.48999999999995, 324.17999999999995 365.48999999999995, 317.96999999999997 356.30999999999995, 317.96999999999997 356.30999999999995, 324.17999999999995 347.12999999999994, 324.17999999999995 347.12999999999994, 334.62 356.30999999999995, 334.62 356.30999999999995, 340.83 365.48999999999995, 340.83 365.48999999999995, 334.62 370.61999999999995, 334.62 370.61999999999995, 346.67999999999995 381.23999999999995, 346.67999999999995 381.23999999999995, 370.61999999999995 346.67999999999995, 370.61999999999995 346.67999999999995, 381.23999999999995 335.96999999999997, 381.23999999999995 335.96999999999997, 368.09999999999997 322.83, 368.09999999999997 322.83, 381.23999999999995 312.12, 381.23999999999995 312.12, 370.61999999999995 285.12, 370.61999999999995 285.12, 381.23999999999995 258.12, 381.23999999999995 258.12, 370.61999999999995 231.11999999999998, 370.61999999999995 231.11999999999998, 381.23999999999995 204.11999999999998, 381.23999999999995 204.11999999999998, 370.61999999999995 177.11999999999998, 370.61999999999995 177.11999999999998, 381.23999999999995 150.11999999999998, 381.23999999999995 150.11999999999998, 370.61999999999995 123.11999999999998, 370.61999999999995 123.11999999999998, 381.23999999999995 96.11999999999998, 381.23999999999995 96.11999999999998, 370.61999999999995 69.11999999999998, 370.61999999999995 69.11999999999998, 381.23999999999995 58.40999999999998, 381.23999999999995 58.40999999999998, 368.09999999999997 45.26999999999998, 368.09999999999997 45.26999999999998, 381.23999999999995 34.55999999999999, 381.23999999999995 34.55999999999999, 370.61999999999995 0, 370.61999999999995 0, 346.67999999999995 10.62, 346.67999999999995 10.62, 334.62 15.749999999999998, 334.62 15.749999999999998, 340.83 24.93, 340.83 24.93, 334.62 34.11, 334.62 34.11, 324.17999999999995 24.93, 324.17999999999995 24.93, 317.96999999999997 15.749999999999998, 317.96999999999997 15.749999999999998, 324.17999999999995 10.62, 324.17999999999995 10.62, 312.12 0, 312.12 0, 285.12 10.62, 285.12 10.62, 258.12 0, 258.12 0, 231.11999999999998 10.62, 231.11999999999998 10.62, 204.11999999999998 0, 204.11999999999998 0, 177.11999999999998 10.62, 177.11999999999998 10.62, 150.11999999999998 0, 150.11999999999998 0, 123.11999999999998 10.62, 123.11999999999998 10.62, 96.11999999999998 0, 96.11999999999998 0, 69.11999999999998 10.62, 69.11999999999998 10.62, 57.05999999999998 15.749999999999998, 57.05999999999998 15.749999999999998, 63.26999999999998 24.93, 63.26999999999998 24.93, 57.05999999999998 34.11, 57.05999999999998 34.11, 46.61999999999998 24.93, 46.61999999999998 24.93, 40.40999999999998 15.749999999999998, 40.40999999999998 15.749999999999998, 46.61999999999998 10.62, 46.61999999999998 10.62, 34.55999999999999 0, 34.55999999999999 "/> 
</g>
<!-- Bottom--> 
<g transform="translate(403.73999999999995, 403.73999999999995) " > 
<polygon style="stroke:#000000; fill:none; stroke-width:0.9" points="0, 10.62 34.55999999999999, 10.62 34.55999999999999, 0 45.26999999999998, 0 45.26999999999998, 13.139999999999999 58.40999999999998, 13.139999999999999 58.40999999999998, 0 69.11999999999998, 0 69.11999999999998, 10.62 96.11999999999998, 10.62 96.11999999999998, 0 123.11999999999998, 0 123.11999999999998, 10.62 150.11999999999998, 10.62 150.11999999999998, 0 177.11999999999998, 0 177.11999999999998, 10.62 204.11999999999998, 10.62 204.11999999999998, 0 231.11999999999998, 0 231.11999999999998, 10.62 258.12, 10.62 258.12, 0 285.12, 0 285.12, 10.62 312.12, 10.62 312.12, 0 322.83, 0 322.83, 13.139999999999999 335.96999999999997, 13.139999999999999 335.96999999999997, 0 346.67999999999995, 0 346.67999999999995, 10.62 381.23999999999995, 10.62 381.23999999999995, 34.55999999999999 370.61999999999995, 34.55999999999999 370.61999999999995, 46.61999999999998 365.48999999999995, 46.61999999999998 365.48999999999995, 40.40999999999998 356.30999999999995, 40.40999999999998 356.30999999999995, 46.61999999999998 347.12999999999994, 46.61999999999998 347.12999999999994, 57.05999999999998 356.30999999999995, 57.05999999999998 356.30999999999995, 63.26999999999998 365.48999999999995, 63.26999999999998 365.48999999999995, 57.05999999999998 370.61999999999995, 57.05999999999998 370.61999999999995, 69.11999999999998 381.23999999999995, 69.11999999999998 381.23999999999995, 96.11999999999998 370.61999999999995, 96.11999999999998 370.61999999999995, 123.11999999999998 381.23999999999995, 123.11999999999998 381.23999999999995, 150.11999999999998 370.61999999999995, 150.11999999999998 370.61999999999995, 177.11999999999998 381.23999999999995, 177.11999999999998 381.23999999999995, 204.11999999999998 370.61999999999995, 204.11999999999998 370.61999999999995, 231.11999999999998 381.23999999999995, 231.11999999999998 381.23999999999995, 258.12 370.61999999999995, 258.12 370.61999999999995, 285.12 381.23999999999995, 285.12 381.23999999999995, 312.12 370.61999999999995, 312.12 370.61999999999995, 324.17999999999995 365.48999999999995, 324.17999999999995 365.48999999999995, 317.96999999999997 356.30999999999995, 317.96999999999997 356.30999999999995, 324.17999999999995 347.12999999999994, 324.17999999999995 347.12999999999994, 334.62 356.30999999999995, 334.62 356.30999999999995, 340.83 365.48999999999995, 340.83 365.48999999999995, 334.62 370.61999999999995, 334.62 370.61999999999995, 346.67999999999995 381.23999999999995, 346.67999999999995 381.23999999999995, 370.61999999999995 346.67999999999995, 370.61999999999995 346.67999999999995, 381.23999999999995 335.96999999999997, 381.23999999999995 335.96999999999997, 368.09999999999997 322.83, 368.09999999999997 322.83, 381.23999999999995 312.12, 381.23999999999995 312.12, 370.61999999999995 285.12, 370.61999999999995 285.12, 381.23999999999995 258.12, 381.23999999999995 258.12, 370.61999999999995 231.11999999999998, 370.61999999999995 231.11999999999998, 381.23999999999995 204.11999999999998, 381.23999999999995 204.11999999999998, 370.61999999999995 177.11999999999998, 370.61999999999995 177.11999999999998, 381.23999999999995 150.11999999999998, 381.23999999999995 150.11999999999998, 370.61999999999995 123.11999999999998, 370.61999999999995 123.11999999999998, 381.23999999999995 96.11999999999998, 381.23999999999995 96.11999999999998, 370.61999999999995 69.11999999999998, 370.61999999999995 69.11999999999998, 381.23999999999995 58.40999999999998, 381.23999999999995 58.40999999999998, 368.09999999999997 45.26999999999998, 368.09999999999997 45.26999999999998, 381.23999999999995 34.55999999999999, 381.23999999999995 34.55999999999999, 370.61999999999995 0, 370.61999999999995 0, 346.67999999999995 10.62, 346.67999999999995 10.62, 334.62 15.749999999999998, 334.62 15.749999999999998, 340.83 24.93, 340.83 24.93, 334.62 34.11, 334.62 34.11, 324.17999999999995 24.93, 324.17999999999995 24.93, 317.96999999999997 15.749999999999998, 317.96999999999997 15.749999999999998, 324.17999999999995 10.62, 324.17999999999995 10.62, 312.12 0, 312.12 0, 285.12 10.62, 285.12 10.62, 258.12 0, 258.12 0, 231.11999999999998 10.62, 231.11999999999998 10.62, 204.11999999999998 0, 204.11999999999998 0, 177.11999999999998 10.62, 177.11999999999998 10.62, 150.11999999999998 0, 150.11999999999998 0, 123.11999999999998 10.62, 123.11999999999998 10.62, 96.11999999999998 0, 96.11999999999998 0, 69.11999999999998 10.62, 69.11999999999998 10.62, 57.05999999999998 15.749999999999998, 57.05999999999998 15.749999999999998, 63.26999999999998 24.93, 63.26999999999998 24.93, 57.05999999999998 34.11, 57.05999999999998 34.11, 46.61999999999998 24.93, 46.61999999999998 24.93, 40.40999999999998 15.749999999999998, 40.40999999999998 15.749999999999998, 46.61999999999998 10.62, 46.61999999999998 10.62, 34.55999999999999 0, 34.55999999999999 "/> 
</g></svg>